<?xml version="1.0" standalone="no"?><!DOCTYPE svg PUBLIC "-//W3C//DTD SVG 1.1//EN" "http://www.w3.org/Graphics/SVG/1.1/DTD/svg11.dtd"><svg t="1741750536184" class="icon" viewBox="0 0 1024 1024" version="1.1" xmlns="http://www.w3.org/2000/svg" p-id="2330" xmlns:xlink="http://www.w3.org/1999/xlink" width="200" height="200"><path d="M512 85.3c235.3 0 426.7 191.4 426.7 426.7 0 235.3-191.4 426.7-426.7 426.7S85.3 747.3 85.3 512C85.3 276.7 276.7 85.3 512 85.3m0-64C241 21.3 21.3 241 21.3 512S241 1002.7 512 1002.7 1002.7 783 1002.7 512 783 21.3 512 21.3z" p-id="2331" fill="#333333"></path><path d="M512 277.3m-64 0a64 64 0 1 0 128 0 64 64 0 1 0-128 0Z" p-id="2332" fill="#333333"></path><path d="M512 810.7c-35.3 0-64-28.7-64-64v-256c0-35.3 28.7-64 64-64s64 28.7 64 64v256c0 35.3-28.7 64-64 64z" p-id="2333" fill="#333333"></path></svg>