<?xml version="1.0" standalone="no"?><!DOCTYPE svg PUBLIC "-//W3C//DTD SVG 1.1//EN" "http://www.w3.org/Graphics/SVG/1.1/DTD/svg11.dtd"><svg t="1746520747990" class="icon" viewBox="0 0 1024 1024" version="1.1" xmlns="http://www.w3.org/2000/svg" p-id="37379" xmlns:xlink="http://www.w3.org/1999/xlink" width="200" height="200"><path d="M512 84.473c223.010 0 406.194 183.186 406.194 406.194s-183.186 406.194-406.194 406.194c-223.010 0-406.194-183.186-406.194-406.194 0-223.010 183.186-406.194 406.194-406.194zM512 40.667c-248.894 0-450 201.106-450 450s201.106 450 450 450c248.894 0 450-201.106 450-450 0-248.894-201.106-450-450-450v0zM543.858 640.004c-17.92 17.92-41.814 33.849-49.778 39.823 3.982-21.902 23.894-71.682 49.778-157.3 25.884-87.61 27.877-101.549 27.877-109.513 0-11.947-3.983-23.894-13.938-31.858-21.903-17.92-57.743-13.938-103.539 11.947-23.894 13.938-49.778 35.841-79.645 69.69l-15.929 15.929 51.771 39.823 11.947-13.938c13.938-11.947 45.796-39.823 51.771-45.796-39.823 129.425-79.645 226.99-79.645 262.832 0 15.929 5.973 29.867 13.938 39.823 9.955 9.955 23.894 15.929 39.823 15.929 13.938 0 31.859-5.973 53.761-17.92 17.92-11.947 45.796-33.849 85.62-71.682l15.929-15.929-45.796-45.796-13.938 13.938zM504.035 217.879c-9.955 11.947-15.929 27.877-15.929 45.796 0 15.929 3.982 27.877 13.938 37.832 9.955 9.955 21.903 15.929 35.841 15.929 11.947 0 27.877-3.982 43.806-21.902 11.947-11.947 17.92-27.877 17.92-45.796 0-13.938-3.983-27.877-13.938-37.832-19.912-19.912-57.743-17.92-81.637 5.973v0z" p-id="37380" fill="#A78BFA"></path></svg>