<?xml version="1.0" standalone="no"?><!DOCTYPE svg PUBLIC "-//W3C//DTD SVG 1.1//EN" "http://www.w3.org/Graphics/SVG/1.1/DTD/svg11.dtd"><svg t="1746780118732" class="icon" viewBox="0 0 1024 1024" version="1.1" xmlns="http://www.w3.org/2000/svg" p-id="18548" xmlns:xlink="http://www.w3.org/1999/xlink" width="200" height="200"><path d="M859.989333 768H704v-155.989333a35.968 35.968 0 1 0-72.021333 0V768h-147.968a35.968 35.968 0 1 0 0 72.021333h148.010666v147.968a35.968 35.968 0 1 0 71.978667 0v-147.968h155.989333a35.968 35.968 0 1 0 0-72.021333z m15.104-466.218667L597.12 21.333333a77.44 77.44 0 0 0-14.805333-11.52 60.928 60.928 0 0 0-4.394667-2.261333c-0.938667-0.512-1.92-0.896-2.816-1.28A72.362667 72.362667 0 0 0 546.005333 0h-346.026666C160.256 0 128 32.213333 128 72.021333v880C128 991.744 160.213333 1024 200.021333 1024h211.968a35.968 35.968 0 1 0 0-72.021333H199.978667V72.021333H512v240C512 351.786667 544.213333 384 584.021333 384h239.957334v155.989333a35.968 35.968 0 1 0 72.021333 0V352.512c0-19.029333-7.509333-37.205333-20.906667-50.730667z m-291.114666 10.24V110.421333l199.808 201.557334h-199.808z" fill="#DB2777" opacity=".65" p-id="18549"></path></svg>