<?xml version="1.0" standalone="no"?><!DOCTYPE svg PUBLIC "-//W3C//DTD SVG 1.1//EN" "http://www.w3.org/Graphics/SVG/1.1/DTD/svg11.dtd"><svg t="1746645147980" class="icon" viewBox="0 0 1024 1024" version="1.1" xmlns="http://www.w3.org/2000/svg" p-id="2570" xmlns:xlink="http://www.w3.org/1999/xlink" width="200" height="200"><path d="M128 96h277.12a64 64 0 0 1 59.328 40l32.384 80.096a64 64 0 0 0 59.328 40H896a64 64 0 0 1 64 64V864a64 64 0 0 1-64 64H128a64 64 0 0 1-64-64V160a64 64 0 0 1 64-64z m0 96v640a32 32 0 0 0 32 32h704a32 32 0 0 0 32-32V352.096a32 32 0 0 0-32-32h-307.808c-52.16 0-99.136-31.68-118.72-80.032l-24.288-60.064A32 32 0 0 0 383.52 160H160a32 32 0 0 0-32 32z" fill="#ffffff" p-id="2571"></path><path d="M352 576m32 0l256 0q32 0 32 32l0 0q0 32-32 32l-256 0q-32 0-32-32l0 0q0-32 32-32Z" fill="#ffffff" p-id="2572"></path><path d="M544 448m0 32l0 256q0 32-32 32l0 0q-32 0-32-32l0-256q0-32 32-32l0 0q32 0 32 32Z" fill="#ffffff" p-id="2573"></path></svg>