<?xml version="1.0" standalone="no"?><!DOCTYPE svg PUBLIC "-//W3C//DTD SVG 1.1//EN" "http://www.w3.org/Graphics/SVG/1.1/DTD/svg11.dtd"><svg t="1746780051547" class="icon" viewBox="0 0 1024 1024" version="1.1" xmlns="http://www.w3.org/2000/svg" p-id="17464" xmlns:xlink="http://www.w3.org/1999/xlink" width="200" height="200"><path d="M85.333333 192h810.666667a64 64 0 0 0 0-128H85.333333a64 64 0 0 0 0 128zM85.333333 576h298.666667a64 64 0 0 0 0-128H85.333333a64 64 0 0 0 0 128zM85.333333 960h128a64 64 0 0 0 0-128H85.333333a64 64 0 0 0 0 128zM576 810.666667h341.333333a64 64 0 0 0 0-128h-341.333333a64 64 0 0 0 0 128z" fill="#DB2777" p-id="17465"></path><path d="M682.666667 576v341.333333a64 64 0 0 0 128 0v-341.333333a64 64 0 0 0-128 0z" fill="#DB2777" p-id="17466"></path></svg>