<?xml version="1.0" standalone="no"?><!DOCTYPE svg PUBLIC "-//W3C//DTD SVG 1.1//EN" "http://www.w3.org/Graphics/SVG/1.1/DTD/svg11.dtd"><svg t="1745947886573" class="icon" viewBox="0 0 1024 1024" version="1.1" xmlns="http://www.w3.org/2000/svg" p-id="15946" xmlns:xlink="http://www.w3.org/1999/xlink" width="200" height="200"><path d="M45.714286 0h931.428571a45.714286 45.714286 0 0 1 0 91.428571H45.714286a45.714286 45.714286 0 0 1 0-91.428571z m1.142857 466.285714h528a45.714286 45.714286 0 0 1 0 91.428572H46.857143a45.714286 45.714286 0 0 1 0-91.428572z m0 466.285715h931.428571a45.714286 45.714286 0 0 1 0 91.428571H46.857143a45.714286 45.714286 0 0 1 0-91.428571z m761.859428-649.064l202.628572 202.628571a36.571429 36.571429 0 0 1 0 51.718857l-202.628572 202.628572A36.571429 36.571429 0 0 1 746.285714 714.628571V309.371429a36.571429 36.571429 0 0 1 62.429715-25.860572z" fill="#ED55A0" p-id="15947"></path></svg>