<?xml version="1.0" standalone="no"?><!DOCTYPE svg PUBLIC "-//W3C//DTD SVG 1.1//EN" "http://www.w3.org/Graphics/SVG/1.1/DTD/svg11.dtd"><svg t="1745947985357" class="icon" viewBox="0 0 1024 1024" version="1.1" xmlns="http://www.w3.org/2000/svg" p-id="17232" xmlns:xlink="http://www.w3.org/1999/xlink" width="200" height="200"><path d="M19.807518 111.933272c-26.367357-26.367357-26.367357-67.518354 0-92.157754 24.639399-26.367357 65.790396-26.367357 92.157754 0L1005.447493 911.657778a68.670326 68.670326 0 0 1 0 93.821713 68.670326 68.670326 0 0 1-93.821713 0L19.807518 111.933272zM911.689778 19.775518a65.534403 65.534403 0 0 1 93.821713 0c24.639399 24.639399 24.639399 65.790396 0 92.157754L111.965272 1005.415493c-26.367357 24.639399-67.518354 24.639399-92.157754 0a65.534403 65.534403 0 0 1 0-93.821713L911.689778 19.775518z" fill="#ED55A0" p-id="17233"></path></svg>