<?xml version="1.0" standalone="no"?><!DOCTYPE svg PUBLIC "-//W3C//DTD SVG 1.1//EN" "http://www.w3.org/Graphics/SVG/1.1/DTD/svg11.dtd"><svg t="1727945437563" class="icon" viewBox="0 0 1024 1024" version="1.1" xmlns="http://www.w3.org/2000/svg" p-id="12845" xmlns:xlink="http://www.w3.org/1999/xlink" width="200" height="200"><path d="M797.65272793 932.51126548l80.93493963-39.61051117c9.90262743 36.18267951 15.23481164 74.65057911 15.23481164 113.68978599v8.18871158h-87.98103968v-6.47479574c0-25.70874483-2.85652736-50.84618537-8.18871159-75.79319066z m-153.87160293-217.47694309c-52.36966742-32.56441111-113.11848021-50.08444435-175.39077507-50.08444434-185.86470826 0-336.87978382 153.30029715-336.87978381 342.59283707v6.47479576H43.7199617v-8.18871159c0-201.0995199 135.7802639-370.01550068 318.78844479-417.81472344-113.68978599-45.51400114-188.14992986-156.15682453-188.14993133-278.60662641 0-164.91684188 131.781125-299.55449426 294.22231003-299.55449426 162.06031452 0 294.22231003 134.0663466 294.22231002 299.55449426 0 127.02024656-78.07841226 235.37784831-188.14992986 278.60662641 39.61051116 10.47393318 78.07841226 26.85135636 113.11848023 48.37052851l-43.99052058 78.64971803zM263.86299689 309.59788471c0 114.83239605 91.98017858 208.52649196 204.52735304 208.52649046 113.11848021 0 204.52735302-93.3132239 204.52735305-208.52649046 0-114.83239605-91.98017858-208.52649196-204.52735305-208.52649196-112.35673921 0.38087052-204.52735302 93.69409441-204.52735304 208.52649196z m713.37007879 173.4864225c-2.85652736 20.94786639-6.47479575 43.0383443-11.04523897 67.60447907-4.5704432 23.80439375-9.33132311 48.37052853-14.66350586 72.9366633-4.5704432 22.66178369-9.90262743 44.94269538-15.80611741 67.60447906L863.54328969 731.41174557c8.76001737-2.85652736 17.52003325-4.5704432 25.70874631-7.61740582 7.04610006-2.2852216 14.47307211-4.5704432 22.09047791-6.47479576 7.61740581-2.2852216 13.90176631-3.99913891 18.66264479-6.47479429l-7.61740581 29.13657798c-2.2852216 8.18871158-3.99913891 14.47307211-5.90349 18.09133903-3.42783314 9.90262743-8.18871158 19.23395055-12.7591548 27.42266211-4.5704432 8.76001737-9.90262743 15.80611741-13.33046055 22.09047794-4.5704432 7.04610006-9.90262743 14.47307211-15.80611889 19.80525483l-66.46186753 19.80525631L862.40067964 857.09894533c-7.04610006 6.47479575-15.23481164 12.18784901-23.23308799 19.23395055-7.04610006 5.33218423-15.23481164 11.04523897-24.56613478 17.52003472-9.33132311 6.47479575-19.23395055 11.61654474-29.13657944 16.37742318-10.47393318 5.33218423-22.09047791 7.61740581-33.70702117 8.18871158-12.18784901 0-23.80439375-0.57130577-35.04006795-2.85652737-13.33046055-1.71391584-26.28005061-5.33218423-38.4679011-9.33132312 3.99913891-6.47479575 8.18871158-12.75915479 12.75915625-20.94786636 3.99913891-7.04610006 8.76001737-14.66350735 14.47307063-23.23308799s11.61654474-18.66264478 17.52003471-29.70788375c16.94872895-29.70788373 33.70702116-58.27315595 50.08444436-86.8384296s30.85049529-54.27401852 43.60965006-77.50710651c15.23481164-26.85135636 29.13657798-51.79836166 42.46703853-75.79319067-16.94872895 19.80525632-35.04006796 41.89573277-53.70271274 66.46186755-18.66264478 24.56613478-36.7539838 48.94183428-54.27401852 74.07927482-20.94786639 30.85049529-41.32442846 62.27229485-60.55837754 94.45583397-4.5704432 7.04610006-9.33132311 15.23481164-14.4730721 23.80439523-5.33218423 8.76001737-11.04523897 18.66264478-16.94872895 29.13657796-5.90348999 10.47393318-11.61654474 20.37656061-18.66264477 31.42179958-5.90348999 10.47393318-12.18784901 21.51917215-18.66264478 31.42179956-14.47307211 23.80439375-29.13657798 48.94183428-44.37138961 74.6505806 0.57130577-7.61740581 1.71391584-17.52003325 3.99913743-29.70788373 2.2852216-10.47393318 5.90348999-23.23308798 11.04523896-38.4679011 4.5704432-15.23481164 12.18784901-33.70702116 21.51917213-54.27401852 6.47479575-12.75915479 11.04523897-23.23308798 13.90176633-30.8504938s5.90348999-12.75915479 7.61740583-16.94872894c1.14261153-2.85652736 2.2852216-6.47479575 4.57044319-8.76001737-1.71391584-2.2852216-2.2852216-6.47479575-0.57130429-12.75915479 0.57130577-5.90348999 2.2852216-14.47307211 6.47479428-25.70874631 3.42783314-11.04523897 9.33132311-26.85135636 17.52003471-46.65661121 8.18871158-20.37656061 19.23395055-42.46703853 32.56441112-65.89056323 13.33046055-23.80439375 28.56527221-46.65661268 45.51400116-69.88970069 16.94872895-23.23308798 35.61137374-46.08530691 54.84532279-67.60447905 18.66264478-20.94786639 39.03920687-40.18181694 60.55837902-58.27315596 20.37656061-16.94872895 41.32442846-30.85049529 61.70098908-41.32442846s40.7531227-16.94872895 59.98707325-18.09133901c2.47565685 12.94959005 1.33304678 29.70788373-1.52348205 50.65575012z" p-id="12846" fill="#EA5353"></path></svg>