<?xml version="1.0" standalone="no"?><!DOCTYPE svg PUBLIC "-//W3C//DTD SVG 1.1//EN" "http://www.w3.org/Graphics/SVG/1.1/DTD/svg11.dtd"><svg t="1727947009746" class="icon" viewBox="0 0 1024 1024" version="1.1" xmlns="http://www.w3.org/2000/svg" p-id="13095" xmlns:xlink="http://www.w3.org/1999/xlink" width="200" height="200"><path d="M797.653 932.511l80.935-39.61c9.902 36.182 15.234 74.65 15.234 113.69v8.188h-87.98v-6.475c0-25.708-2.857-50.846-8.19-75.793zM643.78 715.034a332.254 332.254 0 0 0-175.39-50.084c-185.865 0-336.88 153.3-336.88 342.593v6.475H43.72v-8.19c0-201.099 135.78-370.015 318.788-417.814-113.69-45.514-188.15-156.157-188.15-278.607 0-164.916 131.782-299.554 294.223-299.554 162.06 0 294.222 134.066 294.222 299.554 0 127.02-78.078 235.378-188.15 278.607 39.61 10.474 78.079 26.851 113.119 48.37l-43.99 78.65zM263.863 309.598c0 114.832 91.98 208.526 204.527 208.526 113.119 0 204.528-93.313 204.528-208.526 0-114.833-91.98-208.527-204.528-208.527-112.356 0.381-204.527 93.694-204.527 208.527z m713.37 173.486c-2.856 20.948-6.475 43.039-11.045 67.605-4.57 23.804-9.331 48.37-14.664 72.936-4.57 22.662-9.902 44.943-15.806 67.605l-72.175 40.182c8.76-2.857 17.52-4.57 25.709-7.618 7.046-2.285 14.473-4.57 22.09-6.474 7.618-2.286 13.902-4 18.663-6.475l-7.617 29.136c-2.285 8.189-4 14.473-5.904 18.092-3.428 9.902-8.188 19.234-12.759 27.422-4.57 8.76-9.903 15.806-13.33 22.09-4.57 7.047-9.903 14.474-15.806 19.806l-66.462 19.805L862.4 857.1c-7.046 6.475-15.235 12.188-23.233 19.234-7.047 5.332-15.235 11.045-24.567 17.52-9.33 6.475-19.233 11.616-29.136 16.377-10.474 5.333-22.09 7.618-33.707 8.19-12.188 0-23.805-0.572-35.04-2.857-13.33-1.714-26.28-5.333-38.468-9.332 3.999-6.475 8.189-12.759 12.759-20.948 4-7.046 8.76-14.663 14.473-23.233s11.617-18.662 17.52-29.708c16.949-29.708 33.707-58.273 50.085-86.838s30.85-54.274 43.61-77.507c15.234-26.852 29.136-51.799 42.466-75.793-16.948 19.805-35.04 41.895-53.702 66.462-18.663 24.566-36.754 48.941-54.274 74.079-20.948 30.85-41.325 62.272-60.559 94.456-4.57 7.046-9.331 15.234-14.473 23.804-5.332 8.76-11.045 18.663-16.949 29.137-5.903 10.474-11.616 20.376-18.662 31.421-5.904 10.474-12.188 21.52-18.663 31.422-14.473 23.805-29.136 48.942-44.371 74.65 0.571-7.617 1.714-17.52 3.999-29.707 2.285-10.474 5.903-23.233 11.045-38.468 4.57-15.235 12.188-33.707 21.52-54.274 6.474-12.76 11.044-23.233 13.901-30.85s5.903-12.76 7.617-16.95c1.143-2.856 2.286-6.474 4.57-8.76-1.713-2.284-2.284-6.474-0.57-12.758 0.57-5.904 2.285-14.473 6.474-25.71 3.428-11.044 9.332-26.85 17.52-46.656 8.19-20.376 19.234-42.467 32.565-65.89 13.33-23.805 28.565-46.657 45.514-69.89 16.949-23.233 35.611-46.085 54.845-67.605 18.663-20.947 39.04-40.181 60.558-58.273 20.377-16.948 41.325-30.85 61.701-41.324s40.754-16.949 59.988-18.091c2.475 12.95 1.333 29.707-1.524 50.655z" p-id="13096" fill="#ffffff"></path></svg>