<?xml version="1.0" standalone="no"?><!DOCTYPE svg PUBLIC "-//W3C//DTD SVG 1.1//EN" "http://www.w3.org/Graphics/SVG/1.1/DTD/svg11.dtd"><svg t="1727802477576" class="icon" viewBox="0 0 1024 1024" version="1.1" xmlns="http://www.w3.org/2000/svg" p-id="11244" xmlns:xlink="http://www.w3.org/1999/xlink" width="200" height="200"><path d="M73.14432 696.32h877.71136c40.3968 0 73.14432 32.54272 73.14432 72.67328v181.69856c0 40.1408-32.74752 72.68352-73.14432 72.68352H73.14432C32.74752 1023.37536 0 990.8224 0 950.6816V768.99328C0 728.85248 32.74752 696.32 73.14432 696.32z m0 72.67328v181.69856h877.71136V768.99328H73.14432z m172.24704-374.72256a36.83328 36.83328 0 0 1-25.9584 10.68032 36.83328 36.83328 0 0 1-25.96864-10.68032L0 202.0352 193.46432 9.79968a36.88448 36.88448 0 0 1 50.9952 0.89088 36.32128 36.32128 0 0 1 0.90112 50.67776L140.07296 165.6832H548.5568c80.7936 0 146.28864 65.0752 146.28864 145.3568v254.37184c0 20.0704-16.37376 36.34176-36.56704 36.34176-20.20352 0-36.57728-16.27136-36.57728-36.34176V311.05024c0-40.1408-32.74752-72.67328-73.14432-72.67328H140.0832L245.3504 342.70208l0.03072 0.04096a36.28032 36.28032 0 0 1 0 51.52768z" fill="#2C3E50" p-id="11245"></path></svg>