<?xml version="1.0" standalone="no"?><!DOCTYPE svg PUBLIC "-//W3C//DTD SVG 1.1//EN" "http://www.w3.org/Graphics/SVG/1.1/DTD/svg11.dtd"><svg t="1704378039174" class="icon" viewBox="0 0 1024 1024" version="1.1" xmlns="http://www.w3.org/2000/svg" p-id="3976" xmlns:xlink="http://www.w3.org/1999/xlink" width="200" height="200"><path d="M1010.1 345.3c3.4-8.2 3.4-17.3 0-25.5-1.7-4.1-4.1-7.8-7.2-10.8L767.2 73.3c-13-13-34.1-13-47.1 0s-13 33.5 0 46.5L898.9 298H46c-18.4 0-33.3 14.1-33.3 32.5S27.6 363 46 363h933.3c4.3 0 8.7 0.5 12.7-1.1 8.3-3.4 14.8-8.5 18.1-16.6zM979.4 653H46.1c-4.3 0-8.7 2.7-12.8 4.4-4 1.7-7.6 5-10.6 8-0.1 0.1-0.1 0.5-0.2 0.6 0 0-0.1 0.3-0.1 0.4-3 3-5.4 6.8-7.1 10.8-3.4 8.2-3.4 17.4 0 25.5 1.7 4 4.1 7.6 7.1 10.7 0.1 0.1 0.1 0.2 0.1 0.2l235.7 235.7c13 13 34.1 13 47.1 0s13-36.3 0-49.3L126.5 719h852.9c18.4 0 33.3-14.6 33.3-33s-14.9-33-33.3-33z" fill="#838383" p-id="3977"></path></svg>