<?xml version="1.0" standalone="no"?><!DOCTYPE svg PUBLIC "-//W3C//DTD SVG 1.1//EN" "http://www.w3.org/Graphics/SVG/1.1/DTD/svg11.dtd"><svg t="1747209506744" class="icon" viewBox="0 0 1024 1024" version="1.1" xmlns="http://www.w3.org/2000/svg" p-id="8327" xmlns:xlink="http://www.w3.org/1999/xlink" width="200" height="200"><path d="M955.6 369.8l-138.1-245c-9.9-17.8-29.5-28.9-49.9-29L240 94.1c-20.8 0-40.3 11.4-50.2 29.7L54.2 375.5c-1.9 3.6-0.4 6.7-0.6 9.5-1.8 4.7-0.8 9.8-0.8 15.2V931c0 23.4 14.8 35.1 38.1 35.1h832.4c23.4 0 48.2-11.7 48.2-35.1V400.2c0-11.9-7.9-22.7-15.9-30.4zM538.1 129.7l228.5 1.1c7.9 0 15.2 4.7 19.1 11.6l120.6 217H538.1V129.7zM220.3 141c3.8-7.1 11.2-11.9 19.3-11.9l263.9 0.4v229.8H103.1L220.3 141z m716.5 790c0 4.2-9.3 0.4-13.5 0.4H90.9c-4.2 0-3.5 3.8-3.5-0.4V401.2l834-6.9c1.6 0.2 4.6 2.2 6.5 3.2 1.3 0.7 5 1.2 6.3 1.8 0 0.3 2.6 0.6 2.6 1V931z" fill="" p-id="8328"></path><path d="M750.3 457.7l-305 305L314.5 632l-35.9 35.9 166.7 166.7 340.9-341z" fill="" p-id="8329"></path></svg>