<?xml version="1.0" standalone="no"?><!DOCTYPE svg PUBLIC "-//W3C//DTD SVG 1.1//EN" "http://www.w3.org/Graphics/SVG/1.1/DTD/svg11.dtd"><svg t="1746520066529" class="icon" viewBox="0 0 1126 1024" version="1.1" xmlns="http://www.w3.org/2000/svg" p-id="14060" xmlns:xlink="http://www.w3.org/1999/xlink" width="219.921875" height="200"><path d="M1036.79689 0H89.599731C40.191879 0 0 40.191879 0 89.599731v639.99808C0 779.005663 40.191879 819.197542 89.599731 819.197542h260.760818l-50.07345 54.220638a88.575734 88.575734 0 0 0-16.230351 96.870109A88.575734 88.575734 0 0 0 366.232501 1023.996928h385.739643c36.198291 0 67.686197-20.582338 82.175754-53.759839a88.575734 88.575734 0 0 0-16.281552-96.870109l-192.869821-208.792974c-33.843098-36.65909-97.945306-36.65909-131.788405 0L421.323536 742.397773H89.599731a12.799962 12.799962 0 0 1-12.799961-12.799962V89.599731a12.799962 12.799962 0 0 1 12.799961-12.799961h947.197159a12.799962 12.799962 0 0 1 12.799961 12.799961v639.99808a12.799962 12.799962 0 0 1-12.799961 12.799962h-141.209177a38.399885 38.399885 0 0 0 0 76.799769h141.209177c49.407852 0 89.599731-40.191879 89.599731-89.599731V89.599731C1126.396621 40.191879 1086.204741 0 1036.79689 0z m-487.217739 716.74665c6.70718-7.219178 12.287963-7.219178 18.995143 0l192.869822 208.792973c4.966385 5.375984 3.583989 11.059167 2.355193 13.926359a12.287963 12.287963 0 0 1-11.827165 7.731176H366.232501a12.287963 12.287963 0 0 1-11.827164-7.731176 12.390363 12.390363 0 0 1 2.303993-13.977558l192.869821-208.741774z" p-id="14061" fill="#DB2777"></path><path d="M341.502975 563.19831a38.399885 38.399885 0 0 0 38.399885-38.399884v-76.79977h550.398349a38.399885 38.399885 0 0 0 0-76.79977H379.90286v-76.799769a38.399885 38.399885 0 0 0-76.799769 0v76.799769H187.903436a38.399885 38.399885 0 0 0 0 76.79977h115.199655v76.79977c0 21.196736 17.203148 38.399885 38.399884 38.399884z" p-id="14062" fill="#DB2777"></path></svg>