<?xml version="1.0" standalone="no"?><!DOCTYPE svg PUBLIC "-//W3C//DTD SVG 1.1//EN" "http://www.w3.org/Graphics/SVG/1.1/DTD/svg11.dtd"><svg t="1747207247053" class="icon" viewBox="0 0 1216 1024" version="1.1" xmlns="http://www.w3.org/2000/svg" p-id="7333" xmlns:xlink="http://www.w3.org/1999/xlink" width="237.5" height="200"><path d="M1179.924191 17.020888a88.616687 88.616687 0 0 0-124.438425 20.294747l-541.934902 772.980346-373.982761-244.90372a90.476111 90.476111 0 0 0-124.645028 25.189643 88.616687 88.616687 0 0 0 25.428031 123.484874l431.83153 282.88684a92.176611 92.176611 0 0 0 11.522077 10.044072 88.092234 88.092234 0 0 0 58.881783 16.734823A90.031121 90.031121 0 0 0 615.247094 983.746935a88.839182 88.839182 0 0 0 10.91816-22.71041L1199.885195 142.603574a90.476111 90.476111 0 0 0-19.961004-125.582686z" p-id="7334"></path></svg>