<svg t="1747194387997" class="icon" viewBox="0 0 1024 1024" version="1.1" xmlns="http://www.w3.org/2000/svg" p-id="33768" width="200" height="200"><path d="M870.4 814.08c-5.12 0-10.24-1.706667-15.36-5.12-11.946667-8.533333-13.653333-23.893333-5.12-35.84C907.946667 698.026667 938.666667 607.573333 938.666667 512 938.666667 276.48 747.52 85.333333 512 85.333333S85.333333 276.48 85.333333 512c0 95.573333 30.72 186.026667 88.746667 261.12 8.533333 11.946667 6.826667 27.306667-5.12 35.84s-27.306667 6.826667-35.84-5.12C68.266667 720.213333 34.133333 617.813333 34.133333 512 34.133333 249.173333 249.173333 34.133333 512 34.133333s477.866667 215.04 477.866667 477.866667c0 105.813333-34.133333 208.213333-98.986667 291.84-5.12 6.826667-13.653333 10.24-20.48 10.24z" fill="#333333" p-id="33769"></path><path d="M752.64 696.32c-5.12 0-10.24-1.706667-13.653333-3.413333-11.946667-8.533333-15.36-23.893333-6.826667-35.84 29.013333-42.666667 42.666667-92.16 42.666667-143.36 0-145.066667-117.76-262.826667-262.826667-262.826667S249.173333 366.933333 249.173333 512c0 51.2 15.36 100.693333 42.666667 143.36 8.533333 11.946667 5.12 27.306667-6.826667 35.84s-27.306667 5.12-35.84-6.826667c-34.133333-51.2-51.2-110.933333-51.2-172.373333 0-172.373333 139.946667-314.026667 314.026667-314.026667S826.026667 339.626667 826.026667 512c0 61.44-17.066667 121.173333-51.2 172.373333-5.12 6.826667-13.653333 11.946667-22.186667 11.946667z" fill="#333333" p-id="33770"></path><path d="M841.386667 989.866667H182.613333c-10.24 0-20.48-6.826667-23.893333-15.36s-1.706667-20.48 5.12-27.306667l329.386667-329.386667c10.24-10.24 25.6-10.24 35.84 0l329.386666 329.386667c6.826667 6.826667 10.24 18.773333 5.12 27.306667s-11.946667 15.36-22.186666 15.36z m-597.333334-51.2h534.186667L512 670.72 244.053333 938.666667z" fill="#333333" p-id="33771"></path></svg>