<?xml version="1.0" standalone="no"?><!DOCTYPE svg PUBLIC "-//W3C//DTD SVG 1.1//EN" "http://www.w3.org/Graphics/SVG/1.1/DTD/svg11.dtd"><svg t="1727521481644" class="icon" viewBox="0 0 1024 1024" version="1.1" xmlns="http://www.w3.org/2000/svg" p-id="13376" xmlns:xlink="http://www.w3.org/1999/xlink" width="200" height="200"><path d="M512.2 64.2C265.2 64.2 65 264.4 65 511.4s200.2 447.2 447.2 447.2 447.2-200.2 447.2-447.2S759.1 64.2 512.2 64.2z m0 857.1c-226.4 0-409.9-183.5-409.9-409.9s183.5-409.9 409.9-409.9c226.4 0 409.9 183.5 409.9 409.9 0 226.4-183.5 409.9-409.9 409.9z" p-id="13377" fill="#333333"></path><path d="M325.7 689.8l-6.1-6.1c0-42.2 13.6-82.4 39.4-116.1 23.1-30.3 55.3-53.5 91.2-66-30.9-19.9-49.7-53.8-49.7-90.5 0-58.6 47.7-106.3 106.3-106.3 29.7 0 58.2 11.9 78.2 32.6 19.1 19.8 29.1 46 28.1 73.7 0 35.2-17.1 67.3-45.1 85.9 38.1 11.7 72.2 34.6 96.7 65.1 27.6 34.4 42.2 76.4 42.2 121.5l-4 4h-6.4l-2.1 2.1H325.7zM677 662.6c-10.4-82-80.1-143.3-163.8-143.3s-153.4 61.3-163.8 143.3H677zM506.8 334c-42.4 0-77 34.5-77 77s34.5 77 77 77c42.4 0 77-34.5 77-77s-34.6-77-77-77z" p-id="13378" fill="#333333"></path><path d="M751.8 642.9l-1.3-0.2c-7.6-2.5-11.3-7.9-11.3-16.6l0.1-0.7c0.1-0.4 7.8-43.5-20.5-79.9-13.5-17.4-50.6-29.7-64.5-34.3l-1.8-0.6-0.5-0.2c-5.3-2.7-10.7-8.1-10.7-14.2s5.4-11.6 10.7-14.2l1.8-0.4h-0.2c0.4-0.1 43.3-9.5 45.3-51.6 1.9-36.8-27.9-46.7-29.2-47.1-4.2-1.4-7.4-4.3-9-8.1-1.4-3.3-1.3-7 0.1-10 2-5.8 7.2-9.7 13-9.7 1.7 0 3.4 0.4 4.9 1 8.7 2.3 21.6 9.3 32.6 22.2 8.7 10.3 19.1 28 19.1 54v0.3c-1.8 26.6-13.9 49.1-33.6 62.9 16 7 35.8 18.5 47.6 32.2l0.1 0.2c30 38.8 29.5 80.4 26.5 101.8-0.1 0.5-0.1 0.8-0.1 1v-0.2l-0.4 1.8c-3.4 6.7-9.5 10.7-16.4 10.7h-2.3zM268.2 642.9c-6.1 0-11.6-5.4-14.2-10.7l-0.4-1.8v0.2c0-0.2-0.1-0.5-0.1-1-3-22.1-3.5-64.7 26.6-101.8l0.1-0.1c11.9-13.9 31.9-25.5 48-32.4-16.1-11.9-34-31.2-34-65-2-41.9 25.4-67.3 49.5-76.3h0.1c1.5-0.5 3.1-0.8 4.6-0.8 5.4 0 10.1 3.3 13.1 9.2l0.2 0.5c2.3 7-0.7 13.6-8 17.4-0.6 0.5-1.4 0.9-2.6 1.5-7.2 3.9-29.3 15.6-27.5 48.2 0.8 18 8.3 32 22.1 41.7 10.4 7.3 21.1 9.7 23 9.9 6.8 0.1 12.4 6.6 12.4 14.7 0 8.9-4.1 12.1-11.3 14.4l-0.2 0.1c-14.6 4.2-52 18.7-68.4 35-27.1 35-21 76.1-20.4 79.5 1.3 4.2 0.7 8.1-1.8 11.4-2 2.7-5.2 4.8-9.4 6.2h-1.4z" p-id="13379" fill="#333333"></path></svg>