<?xml version="1.0" standalone="no"?><!DOCTYPE svg PUBLIC "-//W3C//DTD SVG 1.1//EN" "http://www.w3.org/Graphics/SVG/1.1/DTD/svg11.dtd"><svg t="1746519991166" class="icon" viewBox="0 0 1024 1024" version="1.1" xmlns="http://www.w3.org/2000/svg" p-id="12933" xmlns:xlink="http://www.w3.org/1999/xlink" width="200" height="200"><path d="M0 0h1024v1024H0z" fill="#DB2777" opacity=".01" p-id="12934"></path><path d="M512 34.133333a477.866667 477.866667 0 0 0-337.92 815.786667 34.133333 34.133333 0 0 0 24.1664 9.966933h153.258667l-42.325334 118.510934A34.133333 34.133333 0 0 0 341.333333 1024h341.333334a34.133333 34.133333 0 0 0 32.1536-45.602133l-42.325334-118.510934h153.258667a34.133333 34.133333 0 0 0 24.132267-10.001066A477.866667 477.866667 0 0 0 512 34.133333z m136.123733 757.486934l-103.970133-291.089067a34.133333 34.133333 0 0 0-64.3072 0l-103.970133 291.089067h-163.157334a409.6 409.6 0 1 1 598.562134 0h-163.157334z m-287.061333-585.728a341.333333 341.333333 0 0 1 480.631467 394.4448 34.133333 34.133333 0 0 1-65.9456-17.646934 273.066667 273.066667 0 1 0-527.496534 0 34.133333 34.133333 0 1 1-65.9456 17.646934 341.333333 341.333333 0 0 1 178.722134-394.478934zM634.197333 955.733333h-244.462933L512 613.4784 634.231467 955.733333z" fill="#DB2777" p-id="12935"></path></svg>