<?xml version="1.0" standalone="no"?><!DOCTYPE svg PUBLIC "-//W3C//DTD SVG 1.1//EN" "http://www.w3.org/Graphics/SVG/1.1/DTD/svg11.dtd"><svg t="1727521286718" class="icon" viewBox="0 0 1024 1024" version="1.1" xmlns="http://www.w3.org/2000/svg" p-id="8760" xmlns:xlink="http://www.w3.org/1999/xlink" width="200" height="200"><path d="M512.024 1013.55c-67.706 0-133.398-13.268-195.253-39.433-59.731-25.268-113.369-61.435-159.423-107.496-46.053-46.06-82.213-99.703-107.476-159.439-26.16-61.858-39.424-127.553-39.424-195.258 0-67.694 13.264-133.374 39.425-195.216 25.263-59.72 61.423-113.347 107.478-159.391 46.054-46.043 99.692-82.196 159.423-107.452 61.854-26.153 127.544-39.414 195.25-39.414 67.693 0 133.375 13.261 195.222 39.415 59.725 25.257 113.357 61.409 159.408 107.453 46.053 46.044 82.211 99.671 107.473 159.39 26.16 61.843 39.424 127.523 39.424 195.216 0 67.705-13.264 133.399-39.422 195.257-25.262 59.736-61.42 113.38-107.471 159.44-46.051 46.062-99.684 82.228-159.408 107.495-61.849 26.165-127.532 39.433-195.226 39.433z m0-950.691c-247.671 0-449.167 201.449-449.167 449.064 0 247.699 201.496 449.216 449.167 449.216 247.644 0 449.118-201.518 449.118-449.216 0.001-247.614-201.474-449.064-449.118-449.064z" fill="#333333" p-id="8761"></path><path d="M512.024 566.584c-103.882 0-188.396-84.492-188.396-188.346 0-103.827 84.514-188.296 188.396-188.296 103.826 0 188.294 84.469 188.294 188.296 0 103.854-84.467 188.346-188.294 188.346z m0-324.233c-74.983 0-135.987 60.958-135.987 135.887 0 74.956 61.004 135.937 135.987 135.937 74.927 0 135.886-60.981 135.886-135.937 0-74.928-60.959-135.887-135.886-135.887zM512.024 834.108H274.543a26.204 26.204 0 0 1-26.113-28.402l14.178-168.591a26.204 26.204 0 0 1 14.389-21.239l99.752-49.9c12.943-6.477 28.685-1.23 35.16 11.712 6.475 12.943 1.231 28.685-11.712 35.159l-86.596 43.319-10.557 125.531h208.98c14.473 0 26.204 11.732 26.204 26.205s-11.731 26.206-26.204 26.206z" fill="#333333" p-id="8762"></path><path d="M749.505 834.108h-237.48c-14.473 0-26.205-11.732-26.205-26.205s11.732-26.205 26.205-26.205h208.954l-10.67-125.531-86.518-43.323c-12.94-6.48-18.178-22.225-11.697-35.165 6.479-12.94 22.222-18.179 35.164-11.698l99.651 49.9a26.21 26.21 0 0 1 14.378 21.212l14.328 168.592a26.203 26.203 0 0 1-26.11 28.423z" fill="#333333" p-id="8763"></path></svg>