<svg t="1747196944850" class="icon" viewBox="0 0 1024 1024" version="1.1" xmlns="http://www.w3.org/2000/svg" p-id="66607" width="200" height="200"><path d="M426.666667 392.533333C221.866667 392.533333 0 337.066667 0 217.6S221.866667 42.666667 426.666667 42.666667s426.666667 55.466667 426.666666 174.933333-221.866667 174.933333-426.666666 174.933333zM426.666667 128C204.8 128 85.333333 192 85.333333 217.6s119.466667 89.6 341.333334 89.6 341.333333-64 341.333333-89.6S648.533333 128 426.666667 128zM426.666667 588.8c-204.8 0-426.666667-55.466667-426.666667-174.933333 0-25.6 17.066667-42.666667 42.666667-42.666667s42.666667 17.066667 42.666666 42.666667 119.466667 89.6 341.333334 89.6c51.2 0 98.133333-4.266667 145.066666-8.533334 21.333333-4.266667 46.933333 12.8 46.933334 34.133334 4.266667 21.333333-12.8 46.933333-34.133334 46.933333-51.2 8.533333-102.4 12.8-157.866666 12.8zM426.666667 785.066667c-204.8 0-426.666667-55.466667-426.666667-174.933334 0-25.6 17.066667-42.666667 42.666667-42.666666s42.666667 17.066667 42.666666 42.666666 119.466667 89.6 341.333334 89.6c29.866667 0 55.466667 0 85.333333-4.266666 25.6 0 42.666667 17.066667 46.933333 38.4s-17.066667 42.666667-38.4 46.933333c-34.133333 4.266667-64 4.266667-93.866666 4.266667zM426.666667 981.333333c-204.8 0-426.666667-55.466667-426.666667-174.933333 0-25.6 17.066667-42.666667 42.666667-42.666667s42.666667 17.066667 42.666666 42.666667S204.8 896 426.666667 896c72.533333 0 145.066667-8.533333 204.8-21.333333 21.333333-4.266667 46.933333 8.533333 51.2 29.866666 4.266667 21.333333-8.533333 46.933333-29.866667 51.2-68.266667 17.066667-145.066667 25.6-226.133333 25.6z" p-id="66608"></path><path d="M42.666667 849.066667c-25.6 0-42.666667-17.066667-42.666667-42.666667V217.6c0-25.6 17.066667-42.666667 42.666667-42.666667s42.666667 17.066667 42.666666 42.666667v588.8c0 25.6-17.066667 42.666667-42.666666 42.666667zM810.666667 512c-25.6 0-42.666667-17.066667-42.666667-42.666667V217.6c0-25.6 17.066667-42.666667 42.666667-42.666667s42.666667 17.066667 42.666666 42.666667V469.333333c0 25.6-17.066667 42.666667-42.666666 42.666667z" p-id="66609"></path><path d="M746.666667 981.333333c-46.933333 0-93.866667-12.8-136.533334-34.133333-72.533333-42.666667-123.733333-110.933333-136.533333-196.266667-4.266667-17.066667-4.266667-29.866667-4.266667-46.933333 0-68.266667 25.6-132.266667 72.533334-183.466667 51.2-59.733333 128-93.866667 204.8-93.866666 153.6 0 277.333333 123.733333 277.333333 277.333333S900.266667 981.333333 746.666667 981.333333z m0-469.333333c-55.466667 0-106.666667 21.333333-140.8 64-29.866667 34.133333-51.2 81.066667-51.2 128 0 12.8 0 21.333333 4.266666 34.133333 8.533333 55.466667 42.666667 106.666667 93.866667 136.533334 29.866667 17.066667 59.733333 25.6 93.866667 25.6 106.666667 0 192-85.333333 192-192S853.333333 512 746.666667 512z" p-id="66610"></path><path d="M793.6 823.466667h-93.866667c-12.8 0-21.333333-4.266667-29.866666-17.066667l-46.933334-85.333333c-4.266667-8.533333-4.266667-21.333333 0-29.866667l46.933334-85.333333c4.266667-8.533333 17.066667-17.066667 29.866666-17.066667h93.866667c12.8 0 21.333333 4.266667 29.866667 17.066667l46.933333 85.333333c4.266667 8.533333 4.266667 21.333333 0 29.866667l-46.933333 85.333333c-4.266667 8.533333-17.066667 17.066667-29.866667 17.066667z m-76.8-64h59.733333l29.866667-55.466667-29.866667-55.466667h-59.733333l-29.866667 55.466667 29.866667 55.466667z" p-id="66611"></path></svg>