<?xml version="1.0" standalone="no"?><!DOCTYPE svg PUBLIC "-//W3C//DTD SVG 1.1//EN" "http://www.w3.org/Graphics/SVG/1.1/DTD/svg11.dtd"><svg t="1746520508267" class="icon" viewBox="0 0 1024 1024" version="1.1" xmlns="http://www.w3.org/2000/svg" p-id="28467" xmlns:xlink="http://www.w3.org/1999/xlink" width="200" height="200"><path d="M436.167111 405.845333C254.122667 405.845333 56.888889 356.522667 56.888889 250.311111c0-106.154667 197.233778-155.477333 379.278222-155.477333 182.044444 0 379.221333 49.322667 379.221333 155.477333 0 106.211556-197.176889 155.534222-379.221333 155.534222z m0-235.178666C238.933333 170.666667 132.721778 227.555556 132.721778 250.311111c0 22.755556 106.211556 79.644444 303.445333 79.644445C633.344 329.955556 739.555556 273.066667 739.555556 250.311111 739.555556 227.555556 633.344 170.666667 436.167111 170.666667z m0 409.6C254.122667 580.266667 56.888889 531.000889 56.888889 424.789333c0-22.755556 15.189333-37.944889 37.944889-37.944889s37.888 15.189333 37.888 37.944889 106.211556 79.644444 303.445333 79.644445c45.511111 0 87.210667-3.811556 128.910222-7.566222 19.000889-3.811556 41.756444 11.377778 41.756445 30.321777 3.754667 18.944-11.377778 41.699556-30.378667 41.699556-45.511111 7.623111-91.022222 11.377778-140.288 11.377778z m0 174.478222C254.122667 754.744889 56.888889 705.422222 56.888889 599.267556c0-22.755556 15.189333-37.944889 37.944889-37.944889s37.888 15.189333 37.888 37.944889 106.211556 79.644444 303.445333 79.644444c26.510222 0 49.265778 0 75.832889-3.811556 22.755556 0 37.944889 15.189333 41.699556 34.133334 3.811556 18.944-15.132444 37.944889-34.133334 41.699555-30.321778 3.811556-56.888889 3.811556-83.399111 3.811556z m0 174.478222C254.122667 929.223111 56.888889 879.900444 56.888889 773.688889c0-22.755556 15.189333-37.888 37.944889-37.888s37.888 15.132444 37.888 37.888S238.933333 853.333333 436.167111 853.333333c64.455111 0 128.910222-7.566222 182.044445-18.944 18.944-3.811556 41.699556 7.566222 45.511111 26.567111 3.754667 18.944-7.623111 41.699556-26.567111 45.511112-60.700444 15.132444-128.967111 22.755556-200.988445 22.755555z" p-id="28468" fill="#A78BFA"></path><path d="M94.833778 811.633778C72.078222 811.633778 56.888889 796.444444 56.888889 773.688889V250.311111c0-22.755556 15.189333-37.944889 37.944889-37.944889s37.888 15.189333 37.888 37.944889v523.377778c0 22.755556-15.132444 37.944889-37.888 37.944889z m682.666666-299.633778c-22.755556 0-37.944889-15.189333-37.944888-37.944889V250.311111c0-22.755556 15.189333-37.944889 37.944888-37.944889s37.888 15.189333 37.888 37.944889v223.744c0 22.755556-15.132444 37.944889-37.888 37.944889z" p-id="28469" fill="#A78BFA"></path><path d="M720.611556 929.223111c-41.756444 0-83.456-11.377778-121.400889-30.378667C534.755556 860.956444 489.244444 800.256 477.866667 724.423111c-3.811556-15.189333-3.811556-26.567111-3.811556-41.756444 0-60.643556 22.755556-117.532444 64.512-163.043556 45.511111-53.134222 113.777778-83.456 182.044445-83.456C857.144889 436.167111 967.111111 546.133333 967.111111 682.666667c0 136.533333-109.966222 246.556444-246.499555 246.556444z m0-417.223111c-49.322667 0-94.833778 19.000889-125.155556 56.888889-26.567111 30.378667-45.511111 72.078222-45.511111 113.777778 0 11.377778 0 19.000889 3.754667 30.378666a172.032 172.032 0 0 0 83.456 121.344c26.567111 15.189333 53.077333 22.755556 83.456 22.755556 94.776889 0 170.666667-75.832889 170.666666-170.666667S815.388444 512 720.611556 512z" p-id="28470" fill="#A78BFA"></path><path d="M762.311111 788.878222h-83.456c-11.377778 0-18.944-3.811556-26.510222-15.189333l-41.756445-75.832889a32.426667 32.426667 0 0 1 0-26.567111l41.756445-75.832889c3.754667-7.566222 15.132444-15.189333 26.510222-15.189333H762.311111c11.377778 0 18.944 3.811556 26.567111 15.189333L830.577778 671.288889a32.426667 32.426667 0 0 1 0 26.567111l-41.699556 75.832889c-3.811556 7.566222-15.189333 15.189333-26.567111 15.189333z m-68.266667-56.888889h53.077334L773.688889 682.666667l-26.567111-49.322667H694.044444l-26.567111 49.322667 26.567111 49.322666z" p-id="28471" fill="#A78BFA"></path></svg>