<svg t="1747194492028" class="icon" viewBox="0 0 1024 1024" version="1.1" xmlns="http://www.w3.org/2000/svg" p-id="35982" width="200" height="200"><path d="M554.688 682.624a42.688 42.688 0 0 0 0 85.376h0.448a42.688 42.688 0 1 0 0-85.376h-0.448zM767.488 682.624a42.688 42.688 0 0 0 0 85.376H768a42.688 42.688 0 1 0 0-85.376h-0.512z" fill="#333333" p-id="35983"></path><path d="M465.28 96h93.44c59.456 0 106.88 0 144.96 4.48 39.36 4.48 72.128 14.08 100.992 35.584 28.8 21.44 47.424 50.112 63.104 86.464 15.232 35.2 28.8 80.64 45.952 137.6l52.48 174.848c1.28 4.48 2.752 9.28 3.584 14.336v0.32l0.192 1.216c0.64 5.12 0.64 10.048 0.64 14.72v3.392c0 72.704 0 130.304-5.632 175.68-5.824 46.592-18.112 84.736-45.952 115.84-4.992 5.568-10.304 10.88-15.936 15.872-31.104 27.84-69.184 40.128-115.84 45.952-45.312 5.696-102.912 5.696-175.616 5.696H412.352c-72.704 0-130.304 0-175.68-5.696-46.592-5.824-84.672-18.112-115.84-45.888a202.944 202.944 0 0 1-15.872-16c-27.84-31.04-40.128-69.12-45.952-115.84-5.696-45.312-5.696-102.912-5.696-175.616v-3.328c0-4.672 0-9.664 0.704-14.784v-0.32l0.192-1.216c0.832-5.056 2.24-9.856 3.584-14.272l52.48-174.912c17.088-56.96 30.72-102.4 45.952-137.6 15.68-36.352 34.304-65.024 63.104-86.4 28.8-21.504 61.632-31.104 100.992-35.712C358.4 96 405.76 96 465.28 96zM327.68 164.032c-33.152 3.84-53.632 11.072-70.144 23.36-16.512 12.288-29.376 29.824-42.56 60.48-13.568 31.424-26.176 73.28-43.968 132.544l-42.688 142.272h767.36l-42.688-142.272c-17.792-59.264-30.4-101.12-43.968-132.48-13.184-30.72-26.048-48.256-42.56-60.544-16.512-12.288-36.992-19.52-70.144-23.36C662.336 160 618.624 160 556.736 160H467.328c-61.952 0-105.6 0-139.648 4.032zM122.496 736.64c5.056 40.128 14.528 63.616 30.144 81.088 3.456 3.84 7.04 7.488 10.88 10.88 17.536 15.68 40.96 25.088 81.152 30.144 40.96 5.12 94.464 5.184 169.92 5.184h194.816c75.456 0 129.024 0 169.92-5.184 40.128-5.056 63.616-14.464 81.152-30.08 3.84-3.456 7.424-7.104 10.88-10.944 15.616-17.536 25.088-40.96 30.08-81.088 4.672-37.248 5.12-84.928 5.248-150.016H117.312c0.064 65.088 0.512 112.768 5.184 150.016z" fill="#333333" p-id="35984"></path></svg>