<?xml version="1.0" standalone="no"?><!DOCTYPE svg PUBLIC "-//W3C//DTD SVG 1.1//EN" "http://www.w3.org/Graphics/SVG/1.1/DTD/svg11.dtd"><svg t="1746755143301" class="icon" viewBox="0 0 1024 1024" version="1.1" xmlns="http://www.w3.org/2000/svg" p-id="12579" xmlns:xlink="http://www.w3.org/1999/xlink" width="200" height="200"><path d="M953.37931 512C953.37931 268.232939 755.767066 70.62069 512 70.62069 268.232934 70.62069 70.62069 268.232939 70.62069 512 70.62069 755.767061 268.232934 953.37931 512 953.37931 755.767066 953.37931 953.37931 755.767061 953.37931 512ZM512 462.063632 362.212652 312.276289C348.324334 298.387966 326.044072 298.464978 312.254535 312.254526 298.368847 326.140211 298.474726 348.41109 312.276286 362.212657L462.063634 512 312.276286 661.787343C298.387968 675.675664 298.46498 697.955927 312.254535 711.745474 326.140204 725.63116 348.411092 725.525278 362.212652 711.723711L512 561.936368 661.787348 711.723711C675.675666 725.612034 697.955928 725.535022 711.745465 711.745474 725.631153 697.859789 725.525274 675.58891 711.723714 661.787343L561.936366 512 711.723714 362.212657C725.612032 348.324336 725.53502 326.044073 711.745465 312.254526 697.859796 298.36884 675.588908 298.474722 661.787348 312.276289L512 462.063632ZM0 512C0 229.230209 229.230204 0 512 0 794.769796 0 1024 229.230209 1024 512 1024 794.769791 794.769796 1024 512 1024 229.230204 1024 0 794.769791 0 512Z" fill="#f472b6" p-id="12580"></path></svg>