<?xml version="1.0" standalone="no"?><!DOCTYPE svg PUBLIC "-//W3C//DTD SVG 1.1//EN" "http://www.w3.org/Graphics/SVG/1.1/DTD/svg11.dtd"><svg t="1746650700075" class="icon" viewBox="0 0 1344 1024" version="1.1" xmlns="http://www.w3.org/2000/svg" p-id="6796" xmlns:xlink="http://www.w3.org/1999/xlink" width="262.5" height="200"><path d="M1331.968 482.112L1036.16 183.488a41.6 41.6 0 0 0-60.032 0 42.56 42.56 0 0 0 0 60.544L1242.432 512l-266.24 268.8a42.56 42.56 0 0 0 0 60.608 40.704 40.704 0 0 0 59.136 0l295.744-298.688a43.328 43.328 0 0 0 0.896-60.608zM369.536 183.488a41.6 41.6 0 0 0-59.968 0L13.824 482.112a42.56 42.56 0 0 0 0 60.608l295.68 298.688c8.512 7.68 19.456 11.904 30.464 11.904a39.424 39.424 0 0 0 29.568-12.8 42.56 42.56 0 0 0 0-60.544L103.36 512 369.6 243.2a43.072 43.072 0 0 0 0-59.712zM810.624 1.728a41.408 41.408 0 0 0-51.456 29.568L505.6 970.24c-5.952 23.04 6.72 46.08 29.568 52.032a49.024 49.024 0 0 0 10.944 1.728c18.56 0 35.52-12.8 40.576-31.552L840.128 53.76A42.24 42.24 0 0 0 810.88 1.792l-0.256-0.064z" p-id="6797" fill="#ffffff"></path></svg>