<?xml version="1.0" standalone="no"?><!DOCTYPE svg PUBLIC "-//W3C//DTD SVG 1.1//EN" "http://www.w3.org/Graphics/SVG/1.1/DTD/svg11.dtd"><svg t="1746779267773" class="icon" viewBox="0 0 1024 1024" version="1.1" xmlns="http://www.w3.org/2000/svg" p-id="16412" xmlns:xlink="http://www.w3.org/1999/xlink" width="200" height="200"><path d="M515.291429 628.845714A38.582857 38.582857 0 0 1 530.285714 597.942857a256 256 0 0 0 102.4-206.994286v-119.771428C632.685714 141.531429 532.662857 36.571429 409.051429 36.571429h-36.571429C249.051429 36.571429 149.028571 141.531429 149.028571 271.177143v119.771428a256 256 0 0 0 102.582858 206.994286 38.582857 38.582857 0 0 1 14.811428 30.902857A37.851429 37.851429 0 0 1 237.714286 666.514286C97.645714 694.857143 0 760.868571 0 837.668571 0 940.617143 174.994286 1024 390.765714 1024s390.948571-83.382857 390.948572-186.331429c0-76.8-97.645714-142.628571-237.714286-171.154285a37.851429 37.851429 0 0 1-28.708571-37.668572z" fill="#10b981" p-id="16413"></path><path d="M866.011429 420.571429a25.965714 25.965714 0 0 1-9.691429-45.714286 171.154286 171.154286 0 0 0 68.388571-138.057143v-80.457143A152.868571 152.868571 0 0 0 775.497143 0h-24.137143a149.394286 149.394286 0 0 0-139.52 101.485714 277.211429 277.211429 0 0 1 57.417143 169.691429v102.034286l1.28 1.097142a25.782857 25.782857 0 0 1-2.742857 42.788572A294.217143 294.217143 0 0 1 566.857143 615.314286 420.571429 420.571429 0 0 0 763.428571 658.285714C907.337143 658.285714 1024 603.428571 1024 534.125714c0-51.2-65.097143-95.268571-157.988571-113.554285z" fill="#10b981" p-id="16414"></path></svg>