<?xml version="1.0" standalone="no"?><!DOCTYPE svg PUBLIC "-//W3C//DTD SVG 1.1//EN" "http://www.w3.org/Graphics/SVG/1.1/DTD/svg11.dtd"><svg t="1680958582644" class="icon" viewBox="0 0 1024 1024" version="1.1" xmlns="http://www.w3.org/2000/svg" p-id="952" xmlns:xlink="http://www.w3.org/1999/xlink" width="200" height="200"><path d="M510.2 517c-3.8 0-7.7-0.6-11.5-2-40.2-14.5-74.2-40.9-98.2-76.4-30.1-44.5-41.1-98-31-150.7 10.1-52.8 40.2-98.4 84.7-128.5 44.4-30.1 98-41.1 150.7-31 52.7 10.1 98.4 40.2 128.5 84.7 62.2 91.8 38.1 217-53.7 279.3-13.5 9.2-28.1 16.6-43.4 22.3-17.5 6.5-37-2.5-43.4-20.1-6.5-17.5 2.5-37 20.1-43.4 10.1-3.7 19.9-8.7 28.8-14.8 60.9-41.3 76.9-124.4 35.6-185.3-20-29.5-50.3-49.5-85.3-56.2-34.9-6.7-70.5 0.6-100 20.6s-49.5 50.2-56.2 85.3c-6.7 35 0.6 70.5 20.5 100 15.9 23.5 38.5 41 65.2 50.7 17.6 6.3 26.7 25.7 20.3 43.3C537 508.4 524 517 510.2 517zM259.2 892.5c-18.7 0-33.8-15.1-33.8-33.8 0-137.8 59.3-302 341.6-302 51.9 0 98.5 5.5 138.5 16.5 18 4.9 28.6 23.6 23.7 41.6-4.9 18-23.5 28.5-41.6 23.7-34.2-9.3-74.8-14.1-120.7-14.1C380 624.4 293 698.9 293 858.8c0.1 18.6-15.1 33.7-33.8 33.7zM216.1 563.1c-13.8 0-26.7-8.5-31.7-22.1-6.5-17.5 2.5-37 20.1-43.4 10.1-3.7 19.8-8.7 28.8-14.8 60.9-41.3 76.9-124.4 35.6-185.3-24.9-36.7-66.2-58.6-110.6-58.6h-0.2c-13 0-25.9 1.9-38.3 5.7-17.8 5.5-36.7-4.7-42.2-22.6-5.4-17.9 4.7-36.8 22.6-42.2 18.7-5.6 38.2-8.6 57.8-8.6h0.2c66.9 0 129.2 33 166.7 88.3 30.1 44.5 41.1 98 31 150.7-10.1 52.8-40.2 98.4-84.7 128.5-13.5 9.2-28.1 16.7-43.4 22.3-3.9 1.4-7.9 2.1-11.7 2.1z" fill="#AA9EA5" p-id="953"></path><path d="M253.4 678.4c-1.9 0-3.9-0.2-5.9-0.5-26.6-4.7-56.6-7.1-89.1-7.1-20.3 0-39.8 0.9-57.8 2.8-18.7 1.6-35.2-11.7-37.1-30.2-1.9-18.6 11.6-35.2 30.2-37.1 20.3-2 42-3.1 64.6-3.1 36.5 0 70.4 2.7 100.9 8.1 18.4 3.2 30.7 20.8 27.4 39.2-2.8 16.3-17.1 27.9-33.2 27.9zM898.3 547.8c-3.8 0-7.7-0.6-11.5-2-35.1-12.6-64.8-35.7-85.7-66.7-26.3-38.8-35.9-85.5-27.1-131.6 8.9-46 35.1-85.9 73.9-112.2 18.4-12.5 38.7-21.3 60.3-26.1 18.3-3.9 36.3 7.4 40.4 25.7 4.1 18.2-7.4 36.3-25.7 40.4-13.2 2.9-25.7 8.3-37.1 16-23.9 16.2-40 40.7-45.4 68.9-5.5 28.3 0.5 57 16.6 80.9 12.9 19 31.1 33.2 52.7 41 17.6 6.3 26.7 25.7 20.4 43.3-5 13.9-18 22.4-31.8 22.4zM685.7 899.4c-18.7 0-33.8-15.1-33.8-33.8 0-114.6 47.5-252.7 273.5-260.7 19-1.6 34.3 13.9 35 32.6 0.6 18.7-14 34.4-32.6 35-142 5-208.2 66.3-208.2 193.1-0.1 18.7-15.2 33.8-33.9 33.8z" fill="#AA9EA5" p-id="954"></path></svg>