<?xml version="1.0" standalone="no"?><!DOCTYPE svg PUBLIC "-//W3C//DTD SVG 1.1//EN" "http://www.w3.org/Graphics/SVG/1.1/DTD/svg11.dtd"><svg t="1746754872579" class="icon" viewBox="0 0 1024 1024" version="1.1" xmlns="http://www.w3.org/2000/svg" p-id="10495" xmlns:xlink="http://www.w3.org/1999/xlink" width="200" height="200"><path d="M782.065 901.684c10.893 18.387 4.797 42.97-14.29 53.363-18.687 10.893-42.47 4.497-53.064-14.29-11.392-18.388-4.796-42.471 13.691-53.364 19.387-10.792 42.77-4.197 53.663 14.29z m-230.342 83.243c0 21.285-17.588 39.073-39.673 39.073-21.285 0-39.073-17.388-39.073-39.073v-27.382c0-21.785 17.887-39.173 39.073-39.173 21.785 0 39.673 17.388 39.673 39.173v27.382z m-241.135-44.17c-11.093 19.287-35.176 25.383-53.664 14.49-18.987-10.693-25.682-34.576-14.49-53.663l29.08-50.866c11.193-18.687 35.176-25.182 54.163-14.49 18.388 10.893 25.183 35.176 13.99 53.664l-29.08 50.865zM123.416 782.765c-18.987 10.593-43.27 4.197-53.664-14.49-11.092-18.388-4.796-42.77 13.99-53.664l78.147-45.269c18.688-10.392 42.971-4.496 53.664 14.49 10.592 18.388 4.097 42.771-14.49 53.664l-77.647 45.269zM40.272 551.823c-21.785 0-39.073-17.588-39.073-39.074 0-21.785 17.288-39.373 39.073-39.373H161.99c21.785 0 39.074 17.588 39.074 39.074 0 21.785-17.289 39.373-39.074 39.373H40.272z m43.57-241.535c-18.986-10.593-25.182-34.576-13.99-53.364 10.393-18.987 34.577-25.382 53.664-14.49l132.31 76.848c18.686 10.692 24.882 34.576 14.49 53.063-11.093 18.987-35.177 25.083-53.564 14.49l-132.91-76.547z m158.592-187.072l92.137 159.99c11.193 18.688 35.176 25.383 53.863 14.29 18.688-10.592 24.883-34.876 13.99-53.663l-92.536-159.69c-10.593-18.488-34.576-25.183-53.064-14.29-18.987 10.892-25.082 34.975-14.39 53.363z m230.643-82.644c0-21.285 17.887-39.373 39.073-39.373 21.785 0 39.673 17.688 39.673 39.373v184.274c0 21.785-17.588 39.373-39.673 39.673-21.286 0-39.073-17.288-39.073-39.673V40.572z m241.135 43.57c11.192-18.987 34.876-25.182 53.663-14.49 18.987 10.593 25.683 34.577 14.49 53.664l-92.337 159.99c-10.393 18.688-34.976 25.283-53.663 14.49-18.687-10.892-24.883-35.176-14.29-53.963l92.137-159.69z m187.671 158.292l-160.19 92.337c-18.687 10.593-25.183 34.577-14.49 53.663 11.092 18.388 35.176 24.584 53.663 14.29l160.29-92.336c18.388-10.593 25.183-34.577 13.991-53.364-10.793-18.987-34.876-25.782-53.264-14.59z m82.344 230.942c21.985 0 39.373 17.588 39.073 39.373 0 21.486-16.988 39.074-39.073 39.074H799.753c-21.285 0-39.173-17.588-39.173-39.373 0-21.486 17.888-39.074 39.173-39.074h184.474z" fill="#f472b6" p-id="10496"></path></svg>