<?xml version="1.0" standalone="no"?><!DOCTYPE svg PUBLIC "-//W3C//DTD SVG 1.1//EN" "http://www.w3.org/Graphics/SVG/1.1/DTD/svg11.dtd"><svg t="1747213574814" class="icon" viewBox="0 0 1024 1024" version="1.1" xmlns="http://www.w3.org/2000/svg" p-id="13626" xmlns:xlink="http://www.w3.org/1999/xlink" width="200" height="200"><path d="M758.690909 377.018182 290.909091 377.018182l0-90.763636c0-114.036364 88.436364-200.145455 209.454545-200.145455 118.690909 0 209.454545 86.109091 209.454545 200.145455l0 44.218182c0 11.636364 11.636364 23.272727 23.272727 23.272727 11.636364 0 23.272727-9.309091 23.272727-23.272727l0-44.218182c0-139.636364-107.054545-246.690909-251.345455-246.690909l-2.327273 0C358.4 41.890909 244.363636 148.945455 244.363636 286.254545l0 93.090909c-76.8 11.636364-134.981818 76.8-134.981818 155.927273l0 290.909091c0 86.109091 69.818182 158.254545 155.927273 158.254545l491.054545 0c86.109091 0 155.927273-69.818182 155.927273-158.254545L912.290909 535.272727C914.618182 446.836364 844.8 377.018182 758.690909 377.018182L758.690909 377.018182 758.690909 377.018182 758.690909 377.018182zM865.745455 819.2c0 62.836364-55.854545 118.690909-118.690909 118.690909L274.618182 930.909091c-62.836364 0-118.690909-51.2-118.690909-111.709091l0-274.618182c0-62.836364 55.854545-118.690909 118.690909-118.690909l474.763636 0c62.836364 0 118.690909 55.854545 118.690909 118.690909L865.745455 819.2 865.745455 819.2 865.745455 819.2 865.745455 819.2zM512 512c-74.472727 0-134.981818 60.509091-134.981818 134.981818 0 67.490909 51.2 121.018182 116.363636 132.654545 0 0 0 2.327273 0 2.327273l0 67.490909c0 11.636364 6.981818 23.272727 18.618182 23.272727 11.636364 0 20.945455-9.309091 20.945455-23.272727l0-67.490909c0 0 0-2.327273 0-2.327273 62.836364-11.636364 114.036364-65.163636 114.036364-132.654545C646.981818 572.509091 586.472727 512 512 512L512 512 512 512 512 512zM512 735.418182c-46.545455 0-88.436364-44.218182-88.436364-88.436364 0-46.545455 41.890909-88.436364 88.436364-88.436364 46.545455 0 88.436364 41.890909 88.436364 88.436364C600.436364 693.527273 558.545455 735.418182 512 735.418182L512 735.418182 512 735.418182 512 735.418182zM512 742.4" fill="#FF7300" p-id="13627"></path></svg>