<?xml version="1.0" standalone="no"?><!DOCTYPE svg PUBLIC "-//W3C//DTD SVG 1.1//EN" "http://www.w3.org/Graphics/SVG/1.1/DTD/svg11.dtd"><svg t="1746788071608" class="icon" viewBox="0 0 1028 1024" version="1.1" xmlns="http://www.w3.org/2000/svg" p-id="5354" xmlns:xlink="http://www.w3.org/1999/xlink" width="200.78125" height="200"><path d="M274.694739 787.617708a23.156946 23.156946 0 0 0 32.73648 0l69.563097-69.532344a23.064687 23.064687 0 0 0 0-32.721103l-90.013787-89.983033a23.156946 23.156946 0 0 0-32.736479 0l-69.563097 69.532344a23.064687 23.064687 0 0 0 0 32.721103z m-4.090138-143.139449l57.277307 57.26193-36.826617 36.811241-57.277307-57.26193z m142.309121 4.997349a23.156946 23.156946 0 0 0 32.736479 0l69.563097-69.532344a23.064687 23.064687 0 0 0 0-32.721103l-90.029162-89.983033a23.156946 23.156946 0 0 0-32.73648 0l-69.563097 69.532343a23.064687 23.064687 0 0 0 0 32.721103z m-4.105514-143.139449l57.308059 57.26193-36.903499 36.811241-57.292684-57.261931z m142.324497 4.997348a23.156946 23.156946 0 0 0 32.736479 0l69.563097-69.532344a23.064687 23.064687 0 0 0 0-32.705726l-90.029163-89.983033a23.156946 23.156946 0 0 0-32.736479 0l-69.563097 69.532344a23.064687 23.064687 0 0 0 0 32.721103z m-4.090138-143.139449l57.292683 57.26193-36.826617 36.811241-57.30806-57.26193z m142.293744 4.997349a23.156946 23.156946 0 0 0 32.736479 0l69.563097-69.532344a23.064687 23.064687 0 0 0 0-32.721103l-90.013786-89.983033a23.156946 23.156946 0 0 0-32.73648 0l-69.563096 69.532344a23.064687 23.064687 0 0 0 0 32.721103z m-4.074762-143.139449l57.277307 57.26193-36.826617 36.811241-57.292683-57.26193z m324.966068 38.533404l-78.727466-78.696713a30.875928 30.875928 0 0 0-35.365854-5.889184 39.978791 39.978791 0 0 1-53.817604-53.817603 30.845175 30.845175 0 0 0-5.889183-35.365854l-77.112938-77.082185a60.429481 60.429481 0 0 0-86.292683 1.014846L19.168757 672.17126a64.442736 64.442736 0 0 0-18.943797 41.700955 58.199894 58.199894 0 0 0 17.02174 45.422057l77.40509 77.328208a30.875928 30.875928 0 0 0 35.888654 5.581655 36.16543 36.16543 0 0 1 44.683987 8.164899 35.765642 35.765642 0 0 1 8.318664 44.407211 29.99947 29.99947 0 0 0 5.658537 35.365854l79.004242 77.912514a61.505833 61.505833 0 0 0 44.530223 15.945387h0.199894a61.367445 61.367445 0 0 0 44.49947-15.822375l195.511666-193.297456a30.752916 30.752916 0 0 0 0-43.623012l-21.742312-21.819194 21.819194-21.803818 21.834571 21.819194a30.860552 30.860552 0 0 0 43.638388 0L1011.303969 356.846232a61.152174 61.152174 0 0 0 17.544539-45.083775 63.458643 63.458643 0 0 0-18.620891-43.207848z m-97.194592 99.162779l-32.782609-32.751856a30.860552 30.860552 0 0 0-43.638389 43.638388l32.73648 32.721103-32.73648 32.721103-32.736479-32.721103a30.845175 30.845175 0 0 0-43.638388 43.623012l32.736479 32.721103-32.659597 32.705727-32.751856-32.721103a30.860552 30.860552 0 0 0-43.638388 43.638388l32.736479 32.721103-32.736479 32.721103-32.782609-32.736479a30.845175 30.845175 0 1 0-43.638389 43.623012l32.73648 32.721103-43.653765 43.623011-21.834571-21.819194a30.875928 30.875928 0 0 0-43.638388 0l-65.472959 65.442206a30.752916 30.752916 0 0 0 0 43.623012l21.819194 21.819194-43.638388 43.638389-32.751856-32.73648a30.845175 30.845175 0 1 0-43.638388 43.623012l32.751856 32.751856-21.819195 21.819194-32.751856-32.736479a30.845175 30.845175 0 1 0-43.638388 43.623012l32.751856 32.751856-20.573701 20.589077a5.304878 5.304878 0 0 1-2.291092 0.199894l-65.057795-65.042418a103.114529 103.114529 0 0 0-122.458113-122.381231l-62.290032-62.259279a3.90562 3.90562 0 0 1 0.753446-1.060976L716.706406 62.46394l62.351538 62.320785a101.623012 101.623012 0 0 0 122.458113 122.396607l65.057795 65.042418c0.353659 0.353659 0.568929 1.399258 0.99947 0.99947z" fill="#333333" p-id="5355"></path></svg>