<svg t="1747194557160" class="icon" viewBox="0 0 1303 1024" version="1.1" xmlns="http://www.w3.org/2000/svg" p-id="38107" width="200" height="200"><path d="M1249.09734 954.182h-217.181c-29.417 0.465-53.62-26.159-54.272-59.765V834.84H905.03334v119.343H796.67534V835.025h-72.425v119.25H579.30834v-119.25h-72.332v119.25H398.33934v-119.25h-72.425l-0.372 59.392a62.836 62.836 0 0 1-15.826 42.357 51.945 51.945 0 0 1-38.353 17.408H54.27534a51.945 51.945 0 0 1-38.353-17.408A62.836 62.836 0 0 1 0.00334 894.324V59.671C0.00334 26.624 24.20734 0 54.27534 0h1194.636c14.429 0 28.3 6.144 38.446 17.315 10.24 11.078 15.826 26.345 15.919 42.356v834.653a62.836 62.836 0 0 1-15.826 42.357 51.945 51.945 0 0 1-38.446 17.408h0.093z m-54.365-283.369h-56.879c-29.51 0.652-53.9-26.065-54.458-59.671 0-33.047 24.39-59.765 54.458-59.765h56.879V119.436H108.91934v431.941h55.017c30.068 0 54.458 26.624 54.458 59.579 0 33.14-24.203 59.764-54.365 59.764h-55.203v163.84h108.079l0.372-79.127c0-33.048 6.237-39.936 36.306-39.936h796.485c29.79 0 36.12 6.888 36.12 39.843v79.22h108.544V670.72zM977.55134 476.905h108.637V198.842h-108.73v278.249-0.186z m-253.394 0h108.637V198.842H724.25034v278.249-0.186z m-253.3 0h108.544V198.842H470.85734v278.249-0.186z m-253.58-278.063h108.637v278.249l-106.868-0.28-1.862-278.062 0.093 0.093z" p-id="38108"></path></svg>