<?xml version="1.0" standalone="no"?><!DOCTYPE svg PUBLIC "-//W3C//DTD SVG 1.1//EN" "http://www.w3.org/Graphics/SVG/1.1/DTD/svg11.dtd"><svg t="1727798792576" class="icon" viewBox="0 0 1024 1024" version="1.1" xmlns="http://www.w3.org/2000/svg" p-id="2348" xmlns:xlink="http://www.w3.org/1999/xlink" width="200" height="200"><path d="M288 444.8m-44.8 0a44.8 44.8 0 1 0 89.6 0 44.8 44.8 0 1 0-89.6 0Z" p-id="2349" fill="#2C3E50"></path><path d="M512 444.8m-44.8 0a44.8 44.8 0 1 0 89.6 0 44.8 44.8 0 1 0-89.6 0Z" p-id="2350" fill="#2C3E50"></path><path d="M736 444.8m-44.8 0a44.8 44.8 0 1 0 89.6 0 44.8 44.8 0 1 0-89.6 0Z" p-id="2351" fill="#2C3E50"></path><path d="M825.6 108.8H198.4C124.5 108.8 64 169.3 64 243.2v403.2c0 73.9 60.5 134.4 134.4 134.4H288c12.4 0 22.4-10 22.4-22.4 0-12.4-10-22.4-22.4-22.4h-89.6c-49.5 0-89.6-40.1-89.6-89.6V243.2c0-49.5 40.1-89.6 89.6-89.6h627.2c49.5 0 89.6 40.1 89.6 89.6v403.2c0 49.5-40.1 89.6-89.6 89.6H534.4c-9.7 0-19.1 3.1-26.9 9L341 876.3c-5.2 4.3-8.2 10.6-8.2 17.3 0 18.2 21.1 28.2 35.2 16.7l154.5-120.5c7.8-5.8 17.2-9 26.9-9h276.3c73.9 0 134.4-60.5 134.4-134.4V243.2c-0.1-73.9-60.6-134.4-134.5-134.4z" p-id="2352" fill="#2C3E50"></path></svg>