<svg t="1680277172792" class="icon" viewBox="0 0 1024 1024" version="1.1"
    xmlns="http://www.w3.org/2000/svg" p-id="1193" width="200" height="200">
    <path
        d="M527.36 561.152c-46.592 0-84.48 37.888-84.48 84.48 0 33.792 19.968 62.464 48.128 75.776v93.184c0 19.968 16.384 36.352 36.352 36.352 19.968 0 36.352-16.384 36.352-36.352V721.92c28.672-13.824 48.128-42.496 48.128-75.776 0-47.104-37.376-84.992-84.48-84.992z m350.72-169.472H153.088c-39.936 0-72.704 32.256-72.704 72.704v483.328c0 39.936 32.256 72.704 72.704 72.704h724.992c39.936 0 72.704-32.256 72.704-72.704V464.384c-0.512-40.448-32.768-72.704-72.704-72.704z m0 507.392c0 39.936-8.192 48.128-48.128 48.128H201.216c-39.936 0-48.128-8.192-48.128-48.128v-386.56c0-39.936 8.192-48.128 48.128-48.128H829.44c39.936 0 48.128 8.192 48.128 48.128v386.56zM173.056 355.328c19.968 0 36.352-15.872 36.864-35.84 32.768-138.24 157.184-241.664 305.664-241.664 116.224 0 217.088 62.976 271.36 156.672 5.632 12.8 18.432 21.504 33.28 21.504 19.968 0 36.352-16.384 36.352-36.352 0-7.68-2.56-15.36-6.656-20.992C782.848 83.456 658.432 5.12 515.584 5.12c-186.88 0-342.528 128.512-378.88 304.64 0 1.024-0.512 1.536-0.512 2.048 0 1.024-0.512 1.536-0.512 2.56v3.584c0 20.992 16.896 37.376 37.376 37.376z"
        fill="#AA9EA5" p-id="1194"></path>
</svg>