<svg t="1747195585780" class="icon" viewBox="0 0 1024 1024" version="1.1" xmlns="http://www.w3.org/2000/svg" p-id="54258" width="200" height="200"><path d="M492.928 111.168a42.666667 42.666667 0 0 1 38.144 0l341.333333 170.666667a42.666667 42.666667 0 0 1 0 76.330666l-341.333333 170.666667a42.666667 42.666667 0 0 1-38.144 0l-341.333333-170.666667a42.666667 42.666667 0 0 1 0-76.330666l341.333333-170.666667zM266.069333 320L512 442.965333 757.930667 320 512 197.034667 266.069333 320z" fill="#000000" p-id="54259"></path><path d="M151.594667 454.762667L512 634.965333l360.405333-180.202666 38.186667 76.330666-379.52 189.738667a42.666667 42.666667 0 0 1-38.144 0l-379.52-189.76 38.186667-76.309333z" fill="#0078FF" p-id="54260"></path><path d="M151.594667 646.762667L512 826.965333l360.405333-180.202666 38.186667 76.330666-379.52 189.738667a42.666667 42.666667 0 0 1-38.144 0l-379.52-189.76 38.186667-76.309333z" fill="#000000" p-id="54261"></path></svg>