<?xml version="1.0" standalone="no"?><!DOCTYPE svg PUBLIC "-//W3C//DTD SVG 1.1//EN" "http://www.w3.org/Graphics/SVG/1.1/DTD/svg11.dtd"><svg t="1727802397573" class="icon" viewBox="0 0 1024 1024" version="1.1" xmlns="http://www.w3.org/2000/svg" p-id="9992" xmlns:xlink="http://www.w3.org/1999/xlink" width="200" height="200"><path d="M448.853333 989.866667c-6.826667 0-13.653333-1.706667-18.773333-5.12L59.733333 805.546667c-15.36-6.826667-25.6-22.186667-25.6-39.253334V375.466667c0-15.36 8.533333-29.013333 20.48-37.546667 11.946667-8.533333 29.013333-8.533333 42.666667-1.706667l372.053333 179.2c15.36 6.826667 25.6 22.186667 25.6 39.253334v390.826666c0 15.36-8.533333 29.013333-20.48 37.546667-8.533333 5.12-17.066667 6.826667-25.6 6.826667zM85.333333 761.173333l356.693334 172.373334v-375.466667L85.333333 387.413333v373.76zM575.146667 988.16c-8.533333 0-15.36-1.706667-23.893334-6.826667-13.653333-8.533333-20.48-22.186667-20.48-37.546666V554.666667c0-17.066667 10.24-32.426667 25.6-39.253334l370.346667-179.2c13.653333-6.826667 29.013333-5.12 42.666667 1.706667 13.653333 8.533333 20.48 22.186667 20.48 37.546667v390.826666c0 17.066667-10.24 32.426667-25.6 39.253334L593.92 984.746667c-5.12 3.413333-11.946667 3.413333-18.773333 3.413333z m6.826666-430.08v373.76l356.693334-170.666667v-375.466666L581.973333 558.08zM513.706667 488.106667c-6.826667 0-11.946667-1.706667-18.773334-3.413334L93.866667 293.546667c-15.36-6.826667-25.6-22.186667-25.6-40.96 0-17.066667 10.24-32.426667 25.6-39.253334L494.933333 37.546667c11.946667-5.12 23.893333-5.12 35.84 0l397.653334 177.493333c15.36 6.826667 25.6 22.186667 25.6 39.253333 0 17.066667-8.533333 32.426667-25.6 40.96L532.48 484.693333c-6.826667 1.706667-13.653333 3.413333-18.773333 3.413334zM131.413333 254.293333l382.293334 182.613334L892.586667 256 512 85.333333 131.413333 254.293333zM510.293333 85.333333z" fill="#2C3E50" p-id="9993"></path></svg>