<?xml version="1.0" standalone="no"?><!DOCTYPE svg PUBLIC "-//W3C//DTD SVG 1.1//EN" "http://www.w3.org/Graphics/SVG/1.1/DTD/svg11.dtd"><svg t="1746520160661" class="icon" viewBox="0 0 1024 1024" version="1.1" xmlns="http://www.w3.org/2000/svg" p-id="17007" xmlns:xlink="http://www.w3.org/1999/xlink" width="200" height="200"><path d="M1008.467286 581.785332a204.367259 204.367259 0 0 0-42.223726-62.920546 200.493523 200.493523 0 0 0-62.58851-41.94703 189.647061 189.647061 0 0 0-146.482572-2.158224c-4.482466 2.158225-8.798915 3.763058-13.060025 5.921282V382.232573a99.056971 99.056971 0 0 0-28.665649-70.446661A96.013321 96.013321 0 0 0 645.442856 282.234838h-56.169177a202.098357 202.098357 0 0 0 0.719408-159.763953 204.754633 204.754633 0 0 0-42.611099-63.473936 210.288542 210.288542 0 0 0-63.031223-43.053813 197.560551 197.560551 0 0 0-155.502843 0A208.960404 208.960404 0 0 0 265.816698 58.941609a205.972093 205.972093 0 0 0-42.611099 63.473937 195.7897 195.7897 0 0 0-16.159014 79.079559 188.152906 188.152906 0 0 0 12.285278 67.790386q2.600937 6.474674 5.533909 12.894007H100.186802A100.606466 100.606466 0 0 0 0.189066 382.232573v118.370314a91.364838 91.364838 0 0 0 12.1746 46.81687 49.805181 49.805181 0 0 0 36.025748 23.13174 76.201927 76.201927 0 0 0 36.46846-6.474674c8.632898-4.316449 17.708509-8.632898 26.950137-12.894008a55.94782 55.94782 0 0 1 10.127053-3.818397 111.28691 111.28691 0 0 1 90.756108-1.051443 108.464616 108.464616 0 0 1 36.523799 24.736573 110.346145 110.346145 0 0 1 24.681234 37.13253 114.441238 114.441238 0 0 1 8.964933 45.710088 111.010215 111.010215 0 0 1-8.854255 44.658646 112.947083 112.947083 0 0 1-24.791912 36.579138 108.741312 108.741312 0 0 1-36.800495 24.736573c-29.385057 13.004686-58.825453 16.269692-87.380423 1.549495-2.268903-0.996104-5.035857-2.656276-11.067818-5.533909-4.427127-2.047546-9.462984-5.533909-13.004686-7.470777a57.441975 57.441975 0 0 0-70.55734-2.268903c-15.328928 12.561973-27.669545 25.455981-29.883108 48.64306a31.930655 31.930655 0 0 0-0.332035 6.474674v123.738205a93.578401 93.578401 0 0 0 29.606413 69.94861A96.67739 96.67739 0 0 0 99.799428 1023.778644h545.145376a94.961878 94.961878 0 0 0 70.169966-29.053023 96.345356 96.345356 0 0 0 28.942344-69.948609v-89.593987a122.963458 122.963458 0 0 0 13.060025 5.921283 192.026642 192.026642 0 0 0 146.482571-1.604834 194.295545 194.295545 0 0 0 62.64385-42.611099 202.430391 202.430391 0 0 0 42.113048-61.869103 192.469355 192.469355 0 0 0 15.439606-76.921335 195.457666 195.457666 0 0 0-15.328928-76.312605z m-56.999263 126.117786a152.071819 152.071819 0 0 1-31.819976 43.330507 176.531697 176.531697 0 0 1-49.805181 31.321925c-31.709299 13.834773-73.102938 8.854254-105.144271-3.984414a148.474778 148.474778 0 0 1-41.061605-25.123947 26.562763 26.562763 0 0 0-27.669545-3.597041 25.621999 25.621999 0 0 0-14.886215 23.076401v149.415543a41.006266 41.006266 0 0 1-12.506635 30.270482 40.231518 40.231518 0 0 1-30.325821 12.838669H107.712918a42.168387 42.168387 0 0 1-30.823873-12.838669 40.618892 40.618892 0 0 1-12.78333-30.270482V813.490102c0-6.253317-0.719408-14.775537 5.921283-14.886216a38.073294 38.073294 0 0 1 14.056129 6.142639c8.024168 4.26111 14.60952 7.083404 23.297756 10.735784 40.342197 19.091986 90.424073 15.937658 131.375-1.82619a181.733572 181.733572 0 0 0 64.47004-52.627475 268.339247 268.339247 0 0 0 28.997683-50.690606 165.353201 165.353201 0 0 0 0-126.671177c-8.134846-19.258003-19.811394-42.389743-34.420914-57.331297-46.484836-46.152801-127.279907-65.244787-187.710193-39.899484-5.533909 2.047546-10.071714 4.095093-13.834773 5.533909-8.024168 4.095093-15.882319 7.692134-23.519113 11.067818-3.04365 1.051443-5.146535 1.549495-6.0873 2.047546a52.738153 52.738153 0 0 1-2.766954-16.933762V382.730625a41.448978 41.448978 0 0 1 13.060025-30.768534 40.342197 40.342197 0 0 1 30.823873-13.336721h175.424915a25.621999 25.621999 0 0 0 20.08809-41.559656C293.486243 284.891114 280.149522 276.700929 274.670953 262.146748A127.999315 127.999315 0 0 1 266.370089 215.82793a163.416333 163.416333 0 0 1 11.067818-60.430287A182.618997 182.618997 0 0 1 312.910264 105.14975a150.743681 150.743681 0 0 1 44.271272-30.270483 135.63611 135.63611 0 0 1 106.804443 0 150.743681 150.743681 0 0 1 44.271272 30.270483c12.78333 12.78333 22.965722 33.203454 29.993787 50.137215a162.420229 162.420229 0 0 1 11.067818 60.430286c0.664069 31.543281-10.34841 56.667228-30.823873 80.629055a25.621999 25.621999 0 0 0 19.534699 42.057708h100.163753a39.733467 39.733467 0 0 1 30.104465 12.838669 42.943134 42.943134 0 0 1 12.78333 31.266586v157.771745a25.677338 25.677338 0 0 0 42.334403 19.534699c12.229939-10.403749 23.353096-21.360889 41.061605-30.159804a140.671967 140.671967 0 0 1 148.97283 18.815291 127.556602 127.556602 0 0 1 37.464564 45.544071c9.905697 18.815291 11.067818 38.29465 11.067818 56.279854a157.661067 157.661067 0 0 1-10.459088 57.607993z" fill="#A78BFA" p-id="17008"></path></svg>