<?xml version="1.0" standalone="no"?><!DOCTYPE svg PUBLIC "-//W3C//DTD SVG 1.1//EN" "http://www.w3.org/Graphics/SVG/1.1/DTD/svg11.dtd"><svg t="1727949980588" class="icon" viewBox="0 0 1024 1024" version="1.1" xmlns="http://www.w3.org/2000/svg" p-id="15475" data-spm-anchor-id="a313x.search_index.0.i22.2ef43a81HWUqBm" xmlns:xlink="http://www.w3.org/1999/xlink" width="200" height="200"><path d="M832.2 127.9v766H192.7v-766h639.5m0-64H192.7c-35.3 0-64 28.7-64 64v766c0 35.3 28.7 64 64 64h639.5c35.3 0 64-28.7 64-64v-766c0-35.4-28.7-64-64-64z" fill="#2B3E50" p-id="15476" data-spm-anchor-id="a313x.search_index.0.i24.2ef43a81HWUqBm" class=""></path><path d="M261.397 416.166v-223.3h223.3v223.3zM574.969 224.037v-32h190.3v32zM574.984 318.822v-32h190.3v32zM574.988 416.018v-32h190.3v32zM261.437 510.503v-32h503.9v32zM261.44 605.397v-32h503.9v32z" fill="#2B3E50" p-id="15477" data-spm-anchor-id="a313x.search_index.0.i21.2ef43a81HWUqBm" class=""></path><path d="M733.039 824.168v-32h97.9v32z" fill="#2B3E50" p-id="15478"></path><path d="M909.8 958.3H113.6c-35.3 0-64-28.7-64-64v-112c0-35.3 28.7-64 64-64h796.2c35.3 0 64 28.7 64 64v112c0 35.4-28.7 64-64 64z" fill="#2B3E50" p-id="15479" data-spm-anchor-id="a313x.search_index.0.i19.2ef43a81HWUqBm" class=""></path><path d="M165.3 771c14.6 0 26.2 3.2 34.6 9.8 8.8 7.2 13.4 17.6 13.4 31.2 0 7.4-2 14-6 19.8-4.4 6.4-10.6 10.6-18.2 12.6v0.4c12.4 2.8 19.4 11 21 25l2.4 23c0.8 8.8 3.8 15.8 8.6 21h-25.4c-3.4-4.4-5.4-10.6-6.2-18.6l-1.8-17.6c-0.8-7.8-3.2-13.4-7.2-16.8-4.2-3.6-10.4-5.2-18.4-5.2h-37v58.2h-23.4V771h63.6z m-40.2 64.6h37c9.2 0 16.2-2 21-5.8 4.4-4 6.6-9.6 6.6-16.8 0-7.8-2.2-13.4-6.6-16.8-4.4-3.6-11.4-5.2-21-5.2h-37v44.6zM344.1 771v20h-79.6v39.6h74.8v20h-74.8v43.2h83v20H241.1V771h103zM436.7 771l54.6 142.8h-25l-13-35.8h-59.8l-13 35.8h-25L410.1 771h26.6z m9.6 87.8l-22.4-62.6h-0.8l-22.6 62.6h45.8zM557.5 771c23.2 0 40.6 6.4 52.6 19.2 11.4 12 17.2 29.4 17.2 52.2 0 22.6-5.8 40-17.2 52.2-12 12.8-29.4 19.2-52.6 19.2h-52.2V771h52.2z m-28.8 122.8h24.4c17.8 0 30.8-4.2 39-12.4 8-8.4 12-21.4 12-39 0-18-4-31.2-12-39.2-8.2-8.2-21.2-12.2-39-12.2h-24.4v102.8zM676.7 771l48.6 112h0.8l48.4-112h27.4v142.8h-23.4v-98.4h-0.8l-42 98.4h-20.2l-42-98.4h-0.8v98.4h-23.4V771h27.4zM932.9 771v20h-79.6v39.6h74.8v20h-74.8v43.2h83v20H829.9V771h103z" fill="#ffffff" p-id="15480" data-spm-anchor-id="a313x.search_index.0.i20.2ef43a81HWUqBm" class=""></path><path d="M388.6 219.8L452 385.6h-29L407.9 344h-69.4l-15.1 41.6h-29l63.4-165.8h30.8z m11.2 101.9l-26-72.7h-0.9l-26.2 72.7h53.1z" fill="#ffffff" p-id="15481" data-spm-anchor-id="a313x.search_index.0.i18.2ef43a81HWUqBm" class="selected"></path></svg>