<?xml version="1.0" standalone="no"?><!DOCTYPE svg PUBLIC "-//W3C//DTD SVG 1.1//EN" "http://www.w3.org/Graphics/SVG/1.1/DTD/svg11.dtd"><svg t="1746645261951" class="icon" viewBox="0 0 1162 1024" version="1.1" xmlns="http://www.w3.org/2000/svg" p-id="3641" xmlns:xlink="http://www.w3.org/1999/xlink" width="226.953125" height="200"><path d="M1015.265248 720.230902h-8.677481a34.709923 34.709923 0 0 1-26.032442-52.064884 433.874038 433.874038 0 0 0-216.937019-538.003807 425.196557 425.196557 0 0 0-485.938922 86.774808 43.387404 43.387404 0 0 1-60.742365-60.742365A520.648845 520.648845 0 0 1 807.00571 52.064885 511.971364 511.971364 0 0 1 1058.652652 694.19846a43.387404 43.387404 0 0 1-43.387404 26.032442zM581.39121 1023.942729a538.003807 538.003807 0 0 1-225.614499-52.064885 520.648845 520.648845 0 0 1-260.324423-624.778614 43.387404 43.387404 0 0 1 60.742366-26.032442 43.387404 43.387404 0 0 1 26.032442 52.064884 433.874038 433.874038 0 0 0 216.937019 520.648845 425.196557 425.196557 0 0 0 485.938922-86.774807 43.387404 43.387404 0 1 1 60.742365 60.742365 485.938922 485.938922 0 0 1-364.454192 156.194654z" fill="#ffffff" p-id="3642"></path><path d="M199.582057 494.616403c-17.354962 0-26.032442 0-34.709923-17.354962l-34.709923-52.064884-60.742365 52.064884a43.387404 43.387404 0 0 1-60.742365-8.67748 43.387404 43.387404 0 0 1 8.677481-60.742366l95.452288-78.097326c8.677481-8.677481 26.032442-17.354962 34.709923-8.677481s26.032442 8.677481 26.032442 17.354961L234.29198 433.874038c17.354962 17.354962 8.677481 43.387404-17.354961 60.742365zM1015.265248 746.263345h-8.677481l-26.032442-26.032443-52.064885-95.452288c-17.354962-17.354962-8.677481-43.387404 17.354962-60.742365a60.742365 60.742365 0 0 1 60.742365 17.354961l26.032442 60.742366 60.742366-52.064885a52.064885 52.064885 0 0 1 60.742365 8.677481c8.677481 17.354962 8.677481 52.064885-8.677481 60.742365l-104.129769 78.097327z" fill="#ffffff" p-id="3643"></path></svg>