<?xml version="1.0" standalone="no"?><!DOCTYPE svg PUBLIC "-//W3C//DTD SVG 1.1//EN" "http://www.w3.org/Graphics/SVG/1.1/DTD/svg11.dtd"><svg t="1727950198989" class="icon" viewBox="0 0 1024 1024" version="1.1" xmlns="http://www.w3.org/2000/svg" p-id="20643" xmlns:xlink="http://www.w3.org/1999/xlink" width="200" height="200"><path d="M671.2 176.3c52.3-52.3 134.4-55.3 183.1-6.6s45.7 130.8-6.6 183.1l-147 146.9 51.7 51.7 146.9-146.9c80.9-80.9 83.9-209.1 6.6-286.4-77.3-77.3-205.5-74.3-286.4 6.6L472.6 271.6l51.7 51.7 146.9-147z m0 0M352.8 847.7c-52.3 52.3-134.4 55.3-183.1 6.6-48.6-48.7-45.7-130.8 6.6-183.1l144.4-144.4-51.7-51.7-144.3 144.4c-80.9 80.9-83.9 209.1-6.6 286.4 77.3 77.3 205.5 74.3 286.4-6.6l144.4-144.4-51.7-51.7-144.4 144.5z m0 0" fill="#2B3E50" p-id="20644"></path></svg>