<?xml version="1.0" standalone="no"?><!DOCTYPE svg PUBLIC "-//W3C//DTD SVG 1.1//EN" "http://www.w3.org/Graphics/SVG/1.1/DTD/svg11.dtd"><svg t="1746653042130" class="icon" viewBox="0 0 1024 1024" version="1.1" xmlns="http://www.w3.org/2000/svg" p-id="7847" xmlns:xlink="http://www.w3.org/1999/xlink" width="200" height="200"><path d="M290.27 614.65l-12.19 122.39c-0.81 8.04 5.06 15.21 13.09 16.02 0.51 0.05 1.02 0.08 1.54 0.07l121.91-12.68a13.16 13.16 0 0 0 9.26-3.9L834.95 324.5S706.22 193.33 706.21 193.33L294.66 605.87c-2.4 2.36-3.94 5.45-4.39 8.78zM949.52 159.18l-0.46-0.46-78.02-78.51a36.582 36.582 0 0 0-26.82-10.73 36.039 36.039 0 0 0-25.84 10.73l-71.68 74.61 130.68 130.2 71.68-74.12c14.41-14.16 14.61-37.31 0.46-51.72z" p-id="7848" fill="#ffffff"></path><path d="M875.43 488.36c-26.93 0-48.76 21.83-48.76 48.76V857H161.54V232.35h335.98c26.93 0 48.76-21.83 48.76-48.76s-21.83-48.77-48.76-48.77H156.18c-0.49 0-0.98 0-1.47 0.01-50.9 0.81-91.5 42.72-90.69 93.61v633.92c0 50.9 41.26 92.16 92.16 92.16h676.34c50.52-0.27 91.41-41.16 91.68-91.67V537.12c-0.01-26.93-21.84-48.76-48.77-48.76z" p-id="7849" fill="#ffffff"></path></svg>