<?xml version="1.0" standalone="no"?><!DOCTYPE svg PUBLIC "-//W3C//DTD SVG 1.1//EN" "http://www.w3.org/Graphics/SVG/1.1/DTD/svg11.dtd"><svg t="1746087818086" class="icon" viewBox="0 0 1024 1024" version="1.1" xmlns="http://www.w3.org/2000/svg" p-id="2325" xmlns:xlink="http://www.w3.org/1999/xlink" width="200" height="200"><path d="M415.68 415.68a159.808 159.808 0 1 0 0-319.68 159.808 159.808 0 0 0 0 319.68z m0 64a223.808 223.808 0 1 1 0-447.68 223.808 223.808 0 0 1 0 447.68z" fill="#ED539F" p-id="2326"></path><path d="M96 895.232V799.36a319.68 319.68 0 0 1 516.736-251.776 32 32 0 1 0 39.488-50.368A383.68 383.68 0 0 0 32 799.36l-0.064 95.872a32 32 0 0 0 64 0z" fill="#ED539F" p-id="2327"></path><path d="M576 704l448 0 0 64-448 0 0-64Z" fill="#ED539F" p-id="2328"></path><path d="M832 512l0 448-64 0 0-448 64 0Z" fill="#ED539F" p-id="2329"></path></svg>