<?xml version="1.0" standalone="no"?><!DOCTYPE svg PUBLIC "-//W3C//DTD SVG 1.1//EN" "http://www.w3.org/Graphics/SVG/1.1/DTD/svg11.dtd"><svg t="1746493064778" class="icon" viewBox="0 0 1024 1024" version="1.1" xmlns="http://www.w3.org/2000/svg" p-id="5000" xmlns:xlink="http://www.w3.org/1999/xlink" width="200" height="200"><path d="M512 64c7.04-0.128 14.08 0.256 21.12 1.28 30.976 0.64 61.696 5.12 91.52 13.44a426.752 426.752 0 0 1 185.6 99.84c16.192 13.888 31.168 29.12 44.8 45.44a447.616 447.616 0 0 1 0 576 376.192 376.192 0 0 1-44.8 45.44 426.752 426.752 0 0 1-185.6 99.84 363.52 363.52 0 0 1-91.52 13.44c-7.04 1.088-14.08 1.536-21.12 1.28-7.04 0.256-14.08-0.192-21.12-1.28a363.52 363.52 0 0 1-91.52-13.44 426.752 426.752 0 0 1-185.6-99.84 329.92 329.92 0 0 1-44.16-45.44 445.504 445.504 0 0 1 0-576c13.248-16.448 28.032-31.68 44.16-45.44a426.752 426.752 0 0 1 185.6-99.84 363.52 363.52 0 0 1 91.52-13.44c7.04-1.024 14.08-1.408 21.12-1.28zM364.16 733.44a368.896 368.896 0 0 0-105.6 66.56 377.088 377.088 0 0 0 205.44 92.8 592.704 592.704 0 0 1-99.84-159.36z m295.68 0a592.704 592.704 0 0 1-99.84 159.36 377.088 377.088 0 0 0 205.44-92.8 368.896 368.896 0 0 0-105.6-66.56zM512 704a347.328 347.328 0 0 0-86.4 10.24A526.016 526.016 0 0 0 512 849.92a526.016 526.016 0 0 0 86.4-135.68A347.328 347.328 0 0 0 512 704zM213.76 269.44A382.272 382.272 0 0 0 128 512a382.272 382.272 0 0 0 85.76 242.56 424.704 424.704 0 0 1 129.28-81.28 576 576 0 0 1 0-322.56 424.704 424.704 0 0 1-129.28-81.28z m596.48 0a424.704 424.704 0 0 1-129.28 81.28 576 576 0 0 1 0 322.56 424.704 424.704 0 0 1 129.28 81.28 385.92 385.92 0 0 0 0-485.12zM620.16 370.56A431.744 431.744 0 0 1 512 384a431.744 431.744 0 0 1-108.16-13.44 514.112 514.112 0 0 0 0 282.88c71.04-17.92 145.28-17.92 216.32 0a513.728 513.728 0 0 0 0-282.88zM512 174.08a526.016 526.016 0 0 0-86.4 135.68c28.288 7.04 57.28 10.496 86.4 10.24 29.12 0.256 58.176-3.2 86.4-10.24A526.016 526.016 0 0 0 512 174.08z m48-42.88l15.232 18.176c34.56 42.88 63.104 90.432 84.608 141.248a368.896 368.896 0 0 0 105.6-66.56 377.088 377.088 0 0 0-205.44-92.8z m-96 0l-17.536 2.56A377.088 377.088 0 0 0 258.56 224c31.168 28.096 66.88 50.56 105.6 66.56a592.704 592.704 0 0 1 99.84-159.36z" fill="#7C3AED" p-id="5001"></path></svg>