<?xml version="1.0" standalone="no"?><!DOCTYPE svg PUBLIC "-//W3C//DTD SVG 1.1//EN" "http://www.w3.org/Graphics/SVG/1.1/DTD/svg11.dtd"><svg t="1745922981224" class="icon" viewBox="0 0 1024 1024" version="1.1" xmlns="http://www.w3.org/2000/svg" p-id="3215" xmlns:xlink="http://www.w3.org/1999/xlink" width="200" height="200"><path d="M773.035 215.37a395.041 395.041 0 0 0-257.792-98.728h-0.087a81.959 81.959 0 0 0-3.164-0.126c-0.411 0-2.618 0.11-3.346 0.15h-0.047a395.041 395.041 0 0 0-257.634 98.703C165.535 290.62 116.492 398.75 116.492 512s49.043 221.382 134.473 296.63a395.041 395.041 0 0 0 257.792 98.728h0.087c0.538 0.04 2.594 0.126 3.164 0.126 0.411 0 2.618-0.11 3.346-0.15h0.047a395.041 395.041 0 0 0 257.634-98.703C858.465 733.38 907.508 625.25 907.508 512s-49.043-221.382-134.473-296.63z m89.345 274.656H720.108a487.115 487.115 0 0 0-42.857-179.648 393.878 393.878 0 0 0 79.893-49.193 351.029 351.029 0 0 1 105.236 228.84zM636.6 697.176a392.913 392.913 0 0 0-102.633-19.49V533.974h142.248A444.124 444.124 0 0 1 636.6 697.177z m-249.17 0a444.124 444.124 0 0 1-39.645-163.202h142.24v143.712a392.913 392.913 0 0 0-102.626 19.49z m0-370.36a393.135 393.135 0 0 0 102.635 19.419v143.79h-142.28A444.124 444.124 0 0 1 387.4 326.824z m146.576 163.21V346.243a393.135 393.135 0 0 0 102.595-19.42 444.124 444.124 0 0 1 39.614 163.203z m189.844-258.18a347.47 347.47 0 0 1-66.066 39.48 498.522 498.522 0 0 0-77.828-104.09 351.52 351.52 0 0 1 143.854 64.61z m-107.784 55.118a349.629 349.629 0 0 1-82.092 15.172V183.847a455.459 455.459 0 0 1 82.092 103.117z m-126.04-103.117v118.289a349.629 349.629 0 0 1-82.092-15.172 455.459 455.459 0 0 1 82.092-103.117z m-45.982-16.611a498.522 498.522 0 0 0-77.78 104.09 347.47 347.47 0 0 1-66.066-39.48 351.52 351.52 0 0 1 143.846-64.61z m-177.148 93.957a393.87 393.87 0 0 0 79.853 49.193 487.115 487.115 0 0 0-42.857 179.647H161.62a351.029 351.029 0 0 1 105.276-228.84zM161.62 533.974h142.272a487.107 487.107 0 0 0 42.857 179.648 393.926 393.926 0 0 0-79.893 49.193 351.045 351.045 0 0 1-105.236-228.84z m138.57 258.18a347.47 347.47 0 0 1 66.065-39.48 498.522 498.522 0 0 0 77.78 104.09 351.52 351.52 0 0 1-143.845-64.61z m107.744-55.118a349.629 349.629 0 0 1 82.092-15.172v118.289a455.49 455.49 0 0 1-82.092-103.117z m126.04 103.117V721.864a349.629 349.629 0 0 1 82.092 15.172 455.483 455.483 0 0 1-82.092 103.117z m45.982 16.611a498.522 498.522 0 0 0 77.78-104.09 347.47 347.47 0 0 1 66.066 39.48 351.52 351.52 0 0 1-143.846 64.61z m177.148-93.957a393.847 393.847 0 0 0-79.892-49.193 487.107 487.107 0 0 0 42.857-179.647H862.38a351.037 351.037 0 0 1-105.276 228.84z" p-id="3216" fill="#EC4899"></path></svg>