<?xml version="1.0" standalone="no"?><!DOCTYPE svg PUBLIC "-//W3C//DTD SVG 1.1//EN" "http://www.w3.org/Graphics/SVG/1.1/DTD/svg11.dtd"><svg t="1747227856176" class="icon" viewBox="0 0 1031 1024" version="1.1" xmlns="http://www.w3.org/2000/svg" p-id="5858" xmlns:xlink="http://www.w3.org/1999/xlink" width="201.3671875" height="200"><path d="M947.375 804.68h-393.3c-9.517-47.678-51.075-83.632-100.822-83.632-49.815 0-91.372 35.955-100.912 83.632h-269.752c-11.363 0-20.587 9.36-20.587 20.925s9.225 20.925 20.587 20.925h269.73c9.54 47.678 51.097 83.632 100.912 83.632 49.77 0 91.327-35.955 100.822-83.632h393.3c11.363 0 20.587-9.36 20.587-20.925s-9.202-20.925-20.565-20.925M453.23 888.267c-34.133 0-61.807-28.035-61.807-62.663s27.675-62.708 61.807-62.708c34.087 0 61.74 28.080 61.74 62.708s-27.652 62.663-61.74 62.663M82.587 219.298h105.030c9.54 47.722 51.053 83.632 100.845 83.632s91.327-35.932 100.867-83.632h558.023c11.363 0 20.587-9.337 20.587-20.903 0-11.543-9.225-20.925-20.587-20.925h-558c-9.54-47.678-51.053-83.61-100.867-83.61s-91.305 35.955-100.845 83.632h-105.053c-11.363 0-20.587 9.382-20.587 20.925 0 11.565 9.225 20.88 20.587 20.88M288.485 135.687c34.11 0 61.762 28.103 61.762 62.73s-27.653 62.708-61.762 62.708c-34.133 0-61.785-28.080-61.785-62.708 0-34.627 27.675-62.73 61.785-62.73M947.375 491.098h-63.877c-9.54-47.722-51.053-83.655-100.845-83.655s-91.35 35.933-100.868 83.655h-599.197c-11.363 0-20.587 9.338-20.587 20.88 0 11.565 9.225 20.925 20.587 20.925h599.175c9.54 47.7 51.075 83.633 100.867 83.633s91.328-35.955 100.845-83.633h63.877c11.363 0 20.587-9.36 20.587-20.925 0.023-11.543-9.202-20.88-20.565-20.88M782.653 574.708c-34.155 0-61.762-28.080-61.762-62.73 0-34.627 27.63-62.73 61.762-62.73 34.132 0 61.762 28.102 61.762 62.73 0 34.65-27.652 62.73-61.762 62.73z" fill="#42acf6" p-id="5859"></path></svg>