<?xml version="1.0" standalone="no"?><!DOCTYPE svg PUBLIC "-//W3C//DTD SVG 1.1//EN" "http://www.w3.org/Graphics/SVG/1.1/DTD/svg11.dtd"><svg t="1746519032100" class="icon" viewBox="0 0 1024 1024" version="1.1" xmlns="http://www.w3.org/2000/svg" p-id="2334" xmlns:xlink="http://www.w3.org/1999/xlink" width="200" height="200"><path d="M545.01 566.46h351.47v60.31H545.01zM545.01 709.87h351.47v60.31H545.01zM545.01 853.29h351.47v60.31H545.01z" p-id="2335" fill="#2563eb"></path><path d="M499.22 689.33c-97 0-175.83-78.88-175.83-175.83s78.88-175.83 175.83-175.83S675 416.55 675 513.5h-60.26A115.52 115.52 0 1 0 499.22 629z" p-id="2336" fill="#2563eb"></path><path d="M499.4 915.29h-70.29a50 50 0 0 1-49.94-49.94v-59.88l-42.66 42.66a49.15 49.15 0 0 1-35 14.72 49.88 49.88 0 0 1-35.65-14.63L165.73 748.07a49.83 49.83 0 0 1-0.1-70.64L208 635.06h-60.63a50 50 0 0 1-49.94-49.94V443.4a50 50 0 0 1 49.94-49.94h59.88l-42.65-42.65a49.83 49.83 0 0 1-0.1-70.63L264.65 180a49.15 49.15 0 0 1 35-14.73h0.35a49.6 49.6 0 0 1 35.33 14.63l42.38 42.38v-60.62a50 50 0 0 1 49.94-49.94h141.67a50 50 0 0 1 49.94 49.94v59.88l42.64-42.64a49.15 49.15 0 0 1 35-14.74 50 50 0 0 1 35.65 14.63L832.72 279a49.83 49.83 0 0 1 0.09 70.62L790.43 392h60.63A50 50 0 0 1 901 441.89v71.61h-60.31v-61.24h-99.07l-6.94-20.47a240.46 240.46 0 0 0-11.89-28.62l-9.5-19.36 69.5-69.5-85.51-85.51-69.87 69.87-19.41-9.5a237.06 237.06 0 0 0-28.62-11.7L559 270.53V172H438v99.1l-20.5 6.9a240.36 240.36 0 0 0-28.62 11.89l-19.36 9.5L300 229.93l-85.51 85.51 69.88 69.88-9.5 19.36a236.89 236.89 0 0 0-11.7 28.62l-6.94 20.47h-98.49v121h99.07l6.94 20.47a240.46 240.46 0 0 0 11.89 28.62l9.5 19.36-69.5 69.5 85.51 85.51 69.85-69.9 19.36 9.5A236.94 236.94 0 0 0 419 749.54l20.47 6.94V855h59.93z" p-id="2337" fill="#2563eb"></path></svg>