<?xml version="1.0" standalone="no"?><!DOCTYPE svg PUBLIC "-//W3C//DTD SVG 1.1//EN" "http://www.w3.org/Graphics/SVG/1.1/DTD/svg11.dtd"><svg t="1746520223602" class="icon" viewBox="0 0 1024 1024" version="1.1" xmlns="http://www.w3.org/2000/svg" p-id="19001" xmlns:xlink="http://www.w3.org/1999/xlink" width="200" height="200"><path d="M1001.5 364.6c-0.3-3.1-1.1-6.2-2.4-9.2L872.3 67.9c-15-34-48.7-55.9-85.8-55.9H229.9c-37.1 0-70.7 21.9-85.7 55.8L16.8 355.2c-1.6 3.7-2.4 7.5-2.6 11.2-0.4 2-0.7 4.2-0.7 6.3 0 71.4 40.7 133.4 100 164.2v364.8c0 60.8 49.4 110.2 110.2 110.2h358.5c16.6 0 30-13.4 30-30s-13.4-30-30-30H223.8c-27.7 0-50.2-22.5-50.2-50.2V555.9c8.1 1.1 16.4 1.7 24.8 1.7 64.8 0 121.8-33.5 154.9-84 33 50.5 90.1 84 154.9 84 64.8 0 121.8-33.5 154.9-84 33 50.5 90.1 84 154.9 84 101.9 0 184.9-82.9 184.9-184.9-0.3-2.8-0.7-5.5-1.4-8.1z m-183.7 133c-68.8 0-124.9-56-124.9-124.9v-29.3c0-16.6-13.4-30-30-30s-30 13.4-30 30v29.3c0 68.8-56 124.9-124.9 124.9s-124.9-56-124.9-124.9v-29.3c0-16.6-13.4-30-30-30s-30 13.4-30 30v29.3c0 68.8-56 124.9-124.9 124.9-68.1 0-123.6-54.7-124.8-122.5L199.1 92c5.4-12.2 17.5-20.1 30.9-20.1h556.6c13.4 0 25.5 7.9 30.9 20.1l125.2 283.8c-1.8 67.5-57.1 121.8-124.9 121.8z m173 326.3l-22.5-17.8v-2.8l22.3-17.6 0.3-0.3c16.2-13.2 20.4-36 10-54.1l-34.3-59.9c-7.5-13.2-21.6-21.4-36.8-21.4-5.3 0-10.5 1-15.5 2.9L888 663.5c-0.6-0.4-1.3-0.8-1.9-1.1l-4-28.4v-0.2c-3.2-20.6-21.2-36.1-42-36.1h-68.6c-21.1 0-38.7 15.2-42 36.1l-4 28.6c-0.6 0.4-1.3 0.7-1.9 1.1l-26-10.6-0.3-0.1c-4.8-1.9-9.9-2.8-15.1-2.8-15.4 0-29.6 8.2-37.1 21.3l-34.3 60c-10.4 18.2-6.1 41.1 10.2 54.3l22.4 17.7v2.8L621 823.8l-0.4 0.3c-16.1 13.3-20.2 36-9.8 54l34.3 60.1c7.6 13.1 21.7 21.3 36.8 21.3 5.4 0 10.6-1 15.6-3l26.1-10.6c0.6 0.4 1.3 0.7 1.9 1.1l4 28.4 0.1 0.4c3.3 20.8 20.9 35.9 42 35.9H840c20.7 0 38.7-15.5 42-36.1l4-28.7c0.6-0.4 1.3-0.7 1.9-1.1l26 10.6 0.2 0.1c5 2 10.2 3 15.6 3 15.1 0 29.3-8.2 36.9-21.4l34.2-59.9c10.4-18 6.2-40.8-10-54.3z m-137.4 85.4l-11.9 5.6-6.8 48.3h-57.9l-6.8-48.3-12-5.6c-6-2.8-11.9-6.3-17.7-10.4l-10.9-7.8-45 18.3-29.1-50.9 38.3-30.2-1.3-13.2c-0.4-3.7-0.5-7.1-0.5-10.3 0-3.2 0.2-6.6 0.5-10.3l1.3-13.2-38.2-30.3 29.1-50.9 44.9 18.3 10.9-7.8c5.7-4.1 11.7-7.6 17.8-10.5l11.9-5.6 6.8-48.3h57.9l6.8 48.3 11.9 5.6c6.1 2.8 12 6.3 17.7 10.4l10.9 7.9 45-18.3 29.1 50.9-38.2 30.2 1.2 13.1c0.4 3.9 0.5 7.3 0.5 10.4 0 3.1-0.2 6.5-0.5 10.4l-1.2 13.1 38.2 30.2-29.1 51-45-18.4-10.9 7.9c-5.5 4-11.5 7.5-17.7 10.4zM902 804.7c0-53.4-43.2-96.8-96.2-96.8-53.1 0-96.2 43.4-96.2 96.8s43.2 96.8 96.2 96.8c53.1 0.1 96.2-43.4 96.2-96.8z m-96.2-48.2c26.3 0 47.6 21.6 47.6 48.2s-21.4 48.2-47.6 48.2c-26.3 0-47.6-21.6-47.6-48.2s21.3-48.2 47.6-48.2z" p-id="19002" fill="#A78BFA"></path></svg>