<svg t="1747187839527" class="icon" viewBox="0 0 1024 1024" version="1.1" xmlns="http://www.w3.org/2000/svg" p-id="12971" width="200" height="200"><path d="M193.934222 517.12A145.692444 145.692444 0 0 1 48.355556 371.598222c0-4.892444 0.910222-9.728 2.673777-14.279111L160.426667 73.728A39.651556 39.651556 0 0 1 197.404444 48.355556h628.167112c16.384 0 31.118222 10.069333 36.977777 25.372444l109.511111 283.534222c1.763556 4.551111 2.673778 9.443556 2.673778 14.336a145.692444 145.692444 0 0 1-145.521778 145.521778 145.180444 145.180444 0 0 1-105.870222-45.795556 145.180444 145.180444 0 0 1-211.797333 0 145.180444 145.180444 0 0 1-211.740445 0 145.180444 145.180444 0 0 1-105.870222 45.795556z m-83.057778-139.605333c3.015111 43.349333 39.253333 77.368889 83.057778 77.368889 45.909333 0 83.228444-37.376 83.228445-83.285334a22.584889 22.584889 0 1 1 45.226666 0c0 45.909333 37.376 83.285333 83.285334 83.285334 45.909333 0 83.285333-37.376 83.285333-83.285334a22.584889 22.584889 0 1 1 45.169778 0c0 45.909333 37.376 83.285333 83.285333 83.285334 45.966222 0 83.285333-37.376 83.285333-83.285334a22.584889 22.584889 0 1 1 45.226667 0c0 45.909333 37.319111 83.285333 83.285333 83.285334 43.690667 0 79.985778-34.019556 83.057778-77.368889l-100.124444-261.461334-7.964445-5.404444H218.851556l-7.964445 5.461333-99.441778 257.706667-0.568889 3.697778z m134.656 518.030222h372.906667l8.533333 8.533333v62.122667l-8.533333 8.533333H205.880889a39.594667 39.594667 0 0 1-39.594667-39.594666v-318.748445a39.594667 39.594667 0 1 1 79.246222 0v279.153778z" fill="#5c6b7f" p-id="12972"></path><path d="M928.426667 739.669333h-113.208889v-113.265777a37.774222 37.774222 0 0 0-75.548445 0v113.265777h-113.265777a37.774222 37.774222 0 0 0 0 75.491556h113.265777v113.322667a37.774222 37.774222 0 1 0 75.491556 0v-113.322667h113.322667a37.774222 37.774222 0 1 0 0-75.491556z" fill="#5c6b7f" p-id="12973"></path></svg>