<?xml version="1.0" standalone="no"?><!DOCTYPE svg PUBLIC "-//W3C//DTD SVG 1.1//EN" "http://www.w3.org/Graphics/SVG/1.1/DTD/svg11.dtd"><svg t="1746754996019" class="icon" viewBox="0 0 1024 1024" version="1.1" xmlns="http://www.w3.org/2000/svg" p-id="11531" xmlns:xlink="http://www.w3.org/1999/xlink" width="200" height="200"><path d="M512 1024C229.239611 1024 0.017919 794.741738 0.017919 511.98135 0.017919 229.22096 229.239611-0.000731 512-0.000731 794.760389-0.000731 1023.982081 229.22096 1023.982081 511.98135 1023.982081 794.741738 794.760389 1024 512 1024ZM512 73.176136C269.649625 73.176136 73.158216 269.667545 73.158216 512.017919 73.158216 754.368294 269.649625 950.859703 512 950.859703 754.350375 950.859703 950.841784 754.368294 950.841784 512.017919 950.841784 269.667545 754.350375 73.176136 512 73.176136ZM464.678227 684.190179 455.828252 693.003585 454.109455 691.284788C449.465046 693.478997 444.345225 694.868663 438.859703 694.868663 431.070262 694.868663 424.231643 691.869911 418.307279 687.737483L417.429596 688.578597 413.041178 684.190179C413.004608 684.153609 413.004608 684.153609 412.968037 684.117039L262.262455 533.411457 314.009216 481.701266 438.859703 606.551754 714.415772 330.959113 766.162533 382.705874 464.751368 684.117039C464.714798 684.153609 464.714798 684.153609 464.678227 684.190179Z" fill="#f472b6" p-id="11532"></path></svg>