<?xml version="1.0" standalone="no"?><!DOCTYPE svg PUBLIC "-//W3C//DTD SVG 1.1//EN" "http://www.w3.org/Graphics/SVG/1.1/DTD/svg11.dtd"><svg t="1746518861887" class="icon" viewBox="0 0 1024 1024" version="1.1" xmlns="http://www.w3.org/2000/svg" p-id="11133" xmlns:xlink="http://www.w3.org/1999/xlink" width="200" height="200"><path d="M513.5 918c-189 0-352.1-140.9-378.1-328.1-14.8-116.8 16.7-222.4 96.4-311.4 11.1-13 22.2-18.5 31.5-18.5 7.4 0 13 3.7 18.5 9.3 20.4 22.2 3.7 40.8-5.6 51.9-122.2 139-111.1 335.5 26 457.8 57.5 51.9 133.4 79.7 211.3 79.7 85.3 0 166.8-33.4 226.1-92.7 120.5-120.5 127.9-313.2 14.8-439.3l-11.1-11.1c-9.3-9.3-13-18.5-13-27.8 0-7.4 3.7-14.8 11.1-20.4 5.6-5.6 13-7.4 18.5-7.4 11.1 0 22.2 9.3 27.8 14.8 42.6 44.5 66.7 94.5 85.3 148.3 11.1 37.1 18.5 135.3 18.5 146.4-1.9 61.2-24.1 122.3-55.6 174.2-35.2 53.8-83.4 100.1-139 131.6-51.9 27.8-111.2 44.5-170.5 46.3-1.8-3.6-7.3-3.6-12.9-3.6z m0 0" fill="#16a34a" p-id="11134"></path><path d="M511.7 497.3c-29.7-1.9-29.7-27.8-29.7-40.8V143.3c0-29.7 14.8-40.8 29.7-40.8 1.9 0 5.6 0 9.3 1.9 20.4 5.6 24.1 22.2 24.1 37.1v315.1c0 33.4-14.8 40.8-27.8 40.8h-5.6z m0 0" fill="#16a34a" p-id="11135"></path></svg>