<?xml version="1.0" standalone="no"?><!DOCTYPE svg PUBLIC "-//W3C//DTD SVG 1.1//EN" "http://www.w3.org/Graphics/SVG/1.1/DTD/svg11.dtd"><svg t="1746520605927" class="icon" viewBox="0 0 1024 1024" version="1.1" xmlns="http://www.w3.org/2000/svg" p-id="36277" xmlns:xlink="http://www.w3.org/1999/xlink" width="200" height="200"><path d="M736.256 205.872762a121.904762 121.904762 0 1 0 0 243.809524 121.904762 121.904762 0 0 0 0-243.809524z m0-54.125714a176.079238 176.079238 0 1 1 0 352.109714 176.079238 176.079238 0 0 1 0-352.158476zM208.018286 205.824v243.809524h243.809524v-243.809524h-243.809524z m0-54.125714h243.809524c29.891048 0 54.125714 24.234667 54.125714 54.125714v243.809524c0 29.93981-24.234667 54.174476-54.125714 54.174476h-243.809524a54.174476 54.174476 0 0 1-54.174476-54.125714v-243.809524c0-29.93981 24.234667-54.223238 54.125714-54.223238z m0 460.507428v243.809524h243.809524v-243.809524h-243.809524z m0-54.223238h243.809524c29.891048 0 54.125714 24.283429 54.125714 54.174476v243.809524c0 29.93981-24.234667 54.223238-54.125714 54.223238h-243.809524a54.174476 54.174476 0 0 1-54.174476-54.223238v-243.809524c0-29.891048 24.234667-54.125714 54.125714-54.125714z m406.332952 54.174476v243.809524h243.809524v-243.809524h-243.809524z m0-54.125714h243.809524c29.93981 0 54.174476 24.234667 54.174476 54.125714v243.809524c0 29.93981-24.234667 54.223238-54.174476 54.223238h-243.809524a54.174476 54.174476 0 0 1-54.174476-54.223238v-243.809524c0-29.891048 24.234667-54.125714 54.174476-54.125714z" fill="#DB2777" p-id="36278"></path></svg>