<?xml version="1.0" standalone="no"?><!DOCTYPE svg PUBLIC "-//W3C//DTD SVG 1.1//EN" "http://www.w3.org/Graphics/SVG/1.1/DTD/svg11.dtd"><svg t="1746688084071" class="icon" viewBox="0 0 1024 1024" version="1.1" xmlns="http://www.w3.org/2000/svg" p-id="5293" xmlns:xlink="http://www.w3.org/1999/xlink" width="200" height="200"><path d="M868.3618 0H248.047256a117.578288 117.578288 0 0 0-117.578288 117.578288V356.297843H67.760547a31.35421 31.35421 0 0 0 0 62.70842h62.708421v229.455811H67.760547a31.35421 31.35421 0 0 0 0 62.70842h62.708421v195.251218a117.578288 117.578288 0 0 0 117.578288 117.578288h620.314544a117.578288 117.578288 0 0 0 117.578288-117.578288V117.578288a117.578288 117.578288 0 0 0-117.578288-117.578288z m35.629784 904.640223a35.629784 35.629784 0 0 1-35.629784 35.629784H248.047256a35.629784 35.629784 0 0 1-35.629784-35.629784v-195.251218h53.800974a31.35421 31.35421 0 1 0 0-62.70842H215.267854v-229.455811h50.950592a31.35421 31.35421 0 1 0 0-62.70842H215.267854V117.578288a35.629784 35.629784 0 0 1 35.629785-35.629784h617.464161a35.629784 35.629784 0 0 1 35.629784 35.629784z" p-id="5294" fill="#ffffff"></path><path d="M787.838488 114.727905a30.997912 30.997912 0 0 0-31.354211 31.354211v730.054279a31.35421 31.35421 0 1 0 62.352123 0V146.082116a30.997912 30.997912 0 0 0-30.997912-31.354211z" p-id="5295" fill="#ffffff"></path></svg>