<?xml version="1.0" standalone="no"?><!DOCTYPE svg PUBLIC "-//W3C//DTD SVG 1.1//EN" "http://www.w3.org/Graphics/SVG/1.1/DTD/svg11.dtd"><svg t="1727802734494" class="icon" viewBox="0 0 1024 1024" version="1.1" xmlns="http://www.w3.org/2000/svg" p-id="19750" xmlns:xlink="http://www.w3.org/1999/xlink" width="200" height="200"><path d="M436.906667 85.333333h146.773333c20.48 0 37.546667-17.066667 37.546667-37.546666 0-20.48-17.066667-37.546667-37.546667-37.546667h-146.773333c-20.48 0-37.546667 17.066667-37.546667 37.546667 0 23.893333 17.066667 37.546667 37.546667 37.546666zM866.986667 300.373333l40.96-40.96c13.653333-13.653333 13.653333-37.546667 0-51.2-13.653333-13.653333-37.546667-13.653333-51.2 0L819.2 245.76c-81.92-78.506667-191.146667-122.88-307.2-122.88-245.76 0-443.733333 197.973333-443.733333 443.733333s197.973333 443.733333 443.733333 443.733334 443.733333-197.973333 443.733333-443.733334c0-95.573333-30.72-187.733333-88.746666-266.24z m-317.44 634.88v-34.133333c0-20.48-17.066667-37.546667-37.546667-37.546667-20.48 0-37.546667 17.066667-37.546667 37.546667v34.133333c-174.08-17.066667-314.026667-157.013333-331.093333-331.093333h34.133333c13.653333 0 23.893333-6.826667 30.72-17.066667 6.826667-10.24 6.826667-23.893333 0-37.546666-6.826667-10.24-20.48-17.066667-30.72-17.066667h-34.133333c17.066667-174.08 157.013333-314.026667 331.093333-331.093333v34.133333c0 20.48 17.066667 37.546667 37.546667 37.546667 20.48 0 37.546667-17.066667 37.546667-37.546667v-34.133333c174.08 17.066667 314.026667 157.013333 331.093333 331.093333h-34.133333c-20.48 0-37.546667 17.066667-37.546667 37.546667 0 20.48 17.066667 37.546667 37.546667 37.546666h34.133333c-17.066667 170.666667-157.013333 310.613333-331.093333 327.68z" p-id="19751" fill="#2C3E50"></path><path d="M672.426667 389.12l-184.32 146.773333c-17.066667 13.653333-17.066667 34.133333-6.826667 51.2 13.653333 17.066667 34.133333 17.066667 51.2 6.826667l184.32-146.773333c17.066667-13.653333 17.066667-37.546667 6.826667-51.2-10.24-17.066667-34.133333-17.066667-51.2-6.826667z" p-id="19752" fill="#2C3E50"></path></svg>