<?xml version="1.0" standalone="no"?><!DOCTYPE svg PUBLIC "-//W3C//DTD SVG 1.1//EN" "http://www.w3.org/Graphics/SVG/1.1/DTD/svg11.dtd"><svg t="1746519536497" class="icon" viewBox="0 0 1024 1024" version="1.1" xmlns="http://www.w3.org/2000/svg" p-id="8284" xmlns:xlink="http://www.w3.org/1999/xlink" width="200" height="200"><path d="M368.78 477.61L512 374.08l143.21 103.53 42.56-59.12-123.59-89.25L697.77 240l-42.56-59.15L512 284.27 368.78 180.85 326.22 240l123.59 89.24-123.59 89.25z" p-id="8285" fill="#9ca3af"></path><path d="M1011.86 668.38c-0.14-0.97 0.13-1.9-0.09-2.86L895.53 159l-0.29-1.5c-8.21-34.84-28.2-65.33-55.47-86.89-26.77-21.2-60.47-33.84-96.95-33.84H281.17c-36.48 0-70.25 12.64-97.02 33.84-27.28 21.56-47.26 52.05-55.47 86.89h0.07l-0.07 0.14-115.96 505.6c-0.6 1.98-0.68 4.15-0.95 6.28C4.72 688.94 0.23 709.59 0.23 731.34v73.11c0 50.26 20.55 95.96 53.61 129.08 33.13 33.12 78.89 53.69 129.16 53.69h657.98c50.19 0 95.95-20.7 129.08-53.69 33.05-33.13 53.69-78.97 53.69-129.08v-73.11c0.02-22.17-4.57-43.22-11.89-62.96zM199.78 174.06h0.07c4.36-18.63 14.99-34.91 29.42-46.34 14.13-11.13 32.2-17.84 51.9-17.84h461.65c19.7 0 37.77 6.71 51.83 17.84 14.42 11.43 25.06 27.63 29.49 46.34l0.29 1.21 89.16 388.6c-22.3-9.75-46.8-15.31-72.59-15.31H183.01c-25.84 0-50.36 5.57-72.68 15.32l89.45-389.82z m750.88 630.4c0 29.98-12.43 57.4-32.28 77.39-19.92 19.85-47.34 32.27-77.39 32.27H183.01c-30.13 0-57.55-12.42-77.47-32.27-19.85-19.85-32.2-47.41-32.2-77.39v-73.11c0-30.13 12.34-57.55 32.2-77.39 19.92-19.99 47.34-32.27 77.47-32.27h657.98c30.05 0 57.47 12.28 77.39 32.27 19.84 19.85 32.28 47.26 32.28 77.39v73.11z" p-id="8286" fill="#9ca3af"></path></svg>