<svg t="1747188012680" class="icon" viewBox="0 0 1024 1024" version="1.1" xmlns="http://www.w3.org/2000/svg" p-id="25965" width="200" height="200"><path d="M908.8 755.2c-19.2-19.2-38.4-32-64-44.8 6.4-12.8 12.8-19.2 19.2-32 6.4-19.2 12.8-38.4 12.8-57.6 0-19.2-6.4-38.4-12.8-57.6-6.4-19.2-19.2-38.4-32-51.2-12.8-12.8-32-25.6-44.8-32-6.4 0-12.8-6.4-19.2-6.4-6.4-19.2-6.4-38.4-19.2-64-12.8-32-32-57.6-57.6-83.2-19.2-19.2-38.4-32-64-44.8 6.4-12.8 12.8-25.6 19.2-32 6.4-19.2 12.8-38.4 12.8-57.6 0-19.2-6.4-38.4-12.8-57.6-6.4-19.2-12.8-32-25.6-44.8-19.2-19.2-32-25.6-51.2-38.4C550.4 44.8 531.2 44.8 512 44.8c-19.2 0-38.4 6.4-57.6 12.8-19.2 6.4-32 12.8-44.8 32-19.2 12.8-25.6 25.6-38.4 44.8-6.4 19.2-6.4 38.4-6.4 57.6 0 19.2 6.4 38.4 12.8 57.6 0 12.8 6.4 25.6 19.2 32-25.6 12.8-44.8 25.6-64 44.8-25.6 25.6-44.8 57.6-57.6 83.2-6.4 25.6-12.8 44.8-19.2 64l-12.8 6.4c-19.2 6.4-38.4 19.2-51.2 32-12.8 12.8-25.6 32-32 51.2-6.4 12.8-12.8 32-12.8 57.6 0 19.2 6.4 38.4 12.8 57.6 6.4 12.8 12.8 25.6 19.2 32-25.6 12.8-44.8 25.6-64 44.8-25.6 25.6-44.8 51.2-57.6 83.2-12.8 32-19.2 64-19.2 102.4v12.8c0 6.4 6.4 12.8 12.8 12.8 6.4 6.4 6.4 6.4 12.8 6.4h32s6.4 0 6.4-6.4c0 0 6.4 0 6.4-6.4l6.4-6.4s0-6.4 6.4-6.4v-6.4-6.4c0-25.6 6.4-44.8 12.8-64 6.4-19.2 19.2-38.4 38.4-51.2 12.8-12.8 32-25.6 51.2-38.4 32-6.4 51.2-12.8 76.8-12.8 25.6 0 44.8 6.4 64 12.8 19.2 6.4 38.4 19.2 51.2 38.4 19.2 12.8 32 32 38.4 51.2 6.4 19.2 12.8 38.4 12.8 57.6v25.6c0 6.4 6.4 12.8 12.8 12.8 6.4 6.4 6.4 6.4 12.8 6.4h32s6.4 0 6.4-6.4c0 0 6.4 0 6.4-6.4l6.4-6.4s0-6.4 6.4-6.4v-6.4V921.6c0-19.2 6.4-38.4 12.8-51.2 12.8-19.2 25.6-38.4 38.4-51.2 12.8-12.8 32-25.6 51.2-38.4 19.2-6.4 44.8-12.8 64-12.8 25.6 0 44.8 6.4 64 12.8 19.2 6.4 38.4 19.2 51.2 38.4 12.8 12.8 25.6 32 38.4 51.2 6.4 19.2 12.8 44.8 12.8 64v12.8l6.4 6.4s0 6.4 6.4 6.4l6.4 6.4 6.4 6.4h25.6s6.4 0 6.4-6.4c0 0 6.4 0 6.4-6.4l6.4-6.4 6.4-6.4v-6.4-6.4c0-32-6.4-70.4-19.2-102.4 6.4-25.6-12.8-51.2-32-76.8zM467.2 147.2c12.8-12.8 25.6-19.2 44.8-19.2 19.2 0 32 6.4 44.8 19.2 12.8 12.8 19.2 25.6 19.2 44.8 0 19.2-6.4 32-19.2 44.8S531.2 256 512 256c-19.2 0-32-6.4-44.8-19.2-12.8-12.8-19.2-25.6-19.2-44.8 0-19.2 6.4-32 19.2-44.8z m-121.6 518.4c-12.8 12.8-25.6 19.2-44.8 19.2-19.2 0-32-6.4-44.8-19.2-12.8-12.8-19.2-25.6-19.2-44.8 0-19.2 6.4-32 19.2-44.8 12.8-12.8 25.6-19.2 44.8-19.2 19.2 0 32 6.4 44.8 19.2 12.8 12.8 19.2 25.6 19.2 44.8 0 12.8-6.4 32-19.2 44.8zM620.8 512c-12.8 12.8-25.6 32-32 51.2-6.4 12.8-12.8 32-12.8 57.6 0 19.2 6.4 38.4 12.8 57.6 6.4 12.8 12.8 25.6 19.2 32-25.6 12.8-44.8 25.6-64 44.8-12.8 12.8-25.6 25.6-32 44.8-6.4-12.8-19.2-25.6-32-38.4-19.2-19.2-38.4-32-64-44.8 6.4-12.8 12.8-19.2 19.2-32 6.4-25.6 12.8-44.8 12.8-64 0-25.6-6.4-44.8-12.8-57.6-6.4-19.2-19.2-38.4-32-51.2-12.8-12.8-32-25.6-44.8-32-6.4 0-6.4 0-12.8-6.4 0-12.8 6.4-19.2 6.4-32 6.4-19.2 19.2-38.4 38.4-57.6 19.2-6.4 32-19.2 57.6-32 19.2-6.4 44.8-12.8 64-12.8 25.6 0 44.8 6.4 64 12.8 19.2 6.4 38.4 19.2 57.6 38.4 12.8 12.8 25.6 32 38.4 57.6 6.4 12.8 6.4 19.2 6.4 32-6.4 0-6.4 0-12.8 6.4-12.8 0-32 12.8-44.8 25.6z m147.2 153.6c-12.8 12.8-25.6 19.2-44.8 19.2-19.2 0-32-6.4-44.8-19.2-12.8-12.8-19.2-25.6-19.2-44.8 0-19.2 6.4-32 19.2-44.8 12.8-12.8 25.6-19.2 44.8-19.2 19.2 0 32 6.4 44.8 19.2 12.8 12.8 19.2 25.6 19.2 44.8 0 12.8-6.4 32-19.2 44.8z" fill="#5c6b7f" p-id="25966"></path></svg>